<svg xmlns="http://www.w3.org/2000/svg" width="220" height="34.599" viewBox="0 0 220 34.599">
  <path d="M794.009,46.027c0-7.909,5.377-13.266,13.18-13.266,7.474,0,12.249,4.581,12.718,11.83.129,1.99-.931,2.993-3,2.993h-16.08c.12,4.212,2.7,6.655,6.881,6.655a7.644,7.644,0,0,0,5.311-1.837c1.118-.923,1.806-1.536,3.361-1.158l.617.15c2.05.5,2.4,1.644,1.106,3.276-2.181,2.97-5.864,4.628-10.709,4.628-8.1,0-13.39-5.212-13.39-13.27m19.6-2.9c-.27-3.432-2.608-5.621-6.251-5.621-3.493,0-5.981,1.948-6.4,5.621H813.6Z" transform="translate(-599.918 -24.753)" fill="#fff"/>
  <path d="M678.421,46.027c0-7.909,5.377-13.266,13.18-13.266,7.474,0,12.249,4.581,12.718,11.83.129,1.99-.931,2.993-3,2.993h-16.08c.12,4.212,2.7,6.655,6.88,6.655a7.644,7.644,0,0,0,5.311-1.837c1.118-.923,1.806-1.536,3.361-1.158l.618.15c2.05.5,2.4,1.644,1.106,3.276-2.181,2.97-5.864,4.628-10.709,4.628-8.1,0-13.39-5.212-13.39-13.27m19.6-2.9c-.27-3.432-2.609-5.621-6.251-5.621-3.493,0-5.982,1.948-6.4,5.621h12.653Z" transform="translate(-512.585 -24.753)" fill="#fff"/>
  <path d="M636.37,31.552V2.992A2.7,2.7,0,0,1,639.362,0h.882a2.7,2.7,0,0,1,2.993,2.992V31.552a2.7,2.7,0,0,1-2.993,2.992h-.882a2.7,2.7,0,0,1-2.992-2.992" transform="translate(-480.814)" fill="#fff"/>
  <path d="M511.743,45.939c0-8.614,4.826-13.245,11.236-13.245,3.6,0,7.027,1.776,8.361,4.918V35.724c0-1.659,1.092-2.613,2.993-2.613h.837a2.7,2.7,0,0,1,2.993,2.986v19.64a2.7,2.7,0,0,1-2.993,2.988h-.837c-1.886,0-2.993-.942-2.993-2.556V54.415c-1.3,3.053-4.765,4.831-8.331,4.831-6.4,0-11.266-4.678-11.266-13.308m19.806-.015c0-4.729-2.638-7.677-6.521-7.677-3.839,0-6.477,2.933-6.477,7.677,0,4.789,2.624,7.721,6.536,7.721,3.853,0,6.462-2.948,6.462-7.721" transform="translate(-386.649 -24.702)" fill="#fff"/>
  <path d="M471.553,36.082c-1.687,4.856-4.419,8.457-10.164,8.438a15.332,15.332,0,0,1-1.794-.114,1.118,1.118,0,0,1-.947-1.4,11.77,11.77,0,0,1,2.741-5.25c1.979-2.085,4.931-3.266,9.143-3.153a1.114,1.114,0,0,1,1.021,1.474" transform="translate(-346.506 -26.143)" fill="#ffd100"/>
  <path d="M446.007,43.055a1.118,1.118,0,0,0,.947,1.4,15.28,15.28,0,0,0,1.795.113V57.738a2.7,2.7,0,0,1-2.993,2.993h-.883a2.7,2.7,0,0,1-2.992-2.993V37.652a2.7,2.7,0,0,1,2.992-2.993h.883a2.7,2.7,0,0,1,2.993,2.993v.153a11.769,11.769,0,0,0-2.741,5.25" transform="translate(-333.866 -26.187)" fill="#fff"/>
  <path d="M347.921,37.635V57.352a2.7,2.7,0,0,1-2.993,2.993h-.838a2.674,2.674,0,0,1-2.993-2.9v-1.3c-1.133,2.646-4.072,4.576-7.94,4.576-6.906,0-9.977-3.819-9.977-11.938V37.635a2.7,2.7,0,0,1,2.992-2.993h.838A2.7,2.7,0,0,1,330,37.635V48.153c0,4.722,1.739,6.9,5.577,6.9,3.958,0,5.517-2.534,5.517-7.286V37.635a2.7,2.7,0,0,1,2.993-2.993h.838a2.7,2.7,0,0,1,2.993,2.993" transform="translate(-244.182 -26.174)" fill="#fff"/>
  <path d="M240.811,33.228V22.863h-1.1a2.336,2.336,0,0,1-2.51-2.6c0-1.661.835-2.559,2.3-2.559h1.308v-2c0-1.8.832-2.727,2.786-3.143l.792-.169c2.294-.489,3.29.414,3.29,2.558V17.7h3.9c2.079,0,2.993.9,2.993,2.559s-.914,2.6-2.993,2.6h-3.9v9.751c0,4.248.949,5.791,4.141,5.906,1.617.058,2.66.768,2.745,2.31a2.538,2.538,0,0,1-2.574,2.973c-.441.044-.884.061-1.288.061-6.979,0-9.892-2.8-9.892-10.635" transform="translate(-179.218 -9.263)" fill="#fff"/>
  <path d="M115.165,46.163c0-8.614,4.826-13.245,11.236-13.245,3.6,0,7.027,1.776,8.361,4.918V35.948c0-1.659,1.092-2.613,2.993-2.613h.837a2.7,2.7,0,0,1,2.993,2.986v19.64a2.7,2.7,0,0,1-2.993,2.988h-.837c-1.886,0-2.993-.942-2.993-2.556V54.639c-1.3,3.053-4.765,4.831-8.331,4.831-6.4,0-11.265-4.678-11.265-13.308m19.806-.015c0-4.729-2.638-7.677-6.521-7.677-3.839,0-6.477,2.933-6.477,7.677,0,4.789,2.624,7.721,6.536,7.721,3.853,0,6.462-2.948,6.462-7.721" transform="translate(-87.014 -24.871)" fill="#fff"/>
  <path d="M24.74,44.947V56.539a2.7,2.7,0,0,1-2.992,2.992H20.91a2.7,2.7,0,0,1-2.992-2.992V45.575c0-4.722-1.739-6.9-5.577-6.9-3.958,0-5.517,2.534-5.517,7.286V56.539A2.7,2.7,0,0,1,3.83,59.531H2.993A2.7,2.7,0,0,1,0,56.539V36.376a2.7,2.7,0,0,1,2.993-2.993H3.83a2.674,2.674,0,0,1,2.992,2.9v1.3C7.956,34.935,10.9,33,14.763,33c6.906,0,9.977,3.831,9.977,11.949" transform="translate(0 -24.932)" fill="#fff"/>
</svg>
