<svg xmlns="http://www.w3.org/2000/svg" width="20.232" height="20.232" viewBox="0 0 20.232 20.232">
  <path
    d="M-13204.944,1983.293a1.5,1.5,0,0,1,0-2.122l6.056-6.056h-13.609a1.5,1.5,0,0,1-1.5-1.5,1.5,1.5,0,0,1,1.5-1.5h13.609l-6.056-6.056a1.5,1.5,0,0,1,0-2.122,1.5,1.5,0,0,1,2.119,0l8.619,8.616a1.486,1.486,0,0,1,.333.509l0,.006c0,.009.006.017.01.026a.074.074,0,0,0,0,.013l.006.018c0,.007,0,.014.007.022a.048.048,0,0,1,0,.011l.009.028a.006.006,0,0,0,0,0l.009.033h0a1.473,1.473,0,0,1,.044.247.01.01,0,0,1,0,.005c0,.01,0,.02,0,.031a.028.028,0,0,1,0,.009c0,.009,0,.018,0,.027v.015c0,.007,0,.014,0,.022v.073c0,.007,0,.014,0,.022v.015c0,.009,0,.018,0,.027a.027.027,0,0,1,0,.009c0,.01,0,.02,0,.031a.01.01,0,0,1,0,.005,1.477,1.477,0,0,1-.054.28.007.007,0,0,0,0,0l-.009.028,0,.011a.177.177,0,0,1-.007.021.142.142,0,0,1-.007.019s0,.009,0,.013l-.011.026a.011.011,0,0,1,0,.005,1.488,1.488,0,0,1-.333.509l-8.619,8.616a1.492,1.492,0,0,1-1.058.438A1.5,1.5,0,0,1-13204.944,1983.293Z"
    transform="translate(13214.001 -1963.499)" fill="#ffd100" />
</svg>
