<svg xmlns="http://www.w3.org/2000/svg" width="117" height="39" viewBox="0 0 117 39" preserveAspectRatio="none">
  <path d="M116.968,20.3a24.211,24.211,0,0,1-1.475,6.277,32.723,32.723,0,0,1-2.4,5.58,9.745,9.745,0,0,1-3.6,3.689,15.547,15.547,0,0,1-5.061,1.6c-8.249,1.429-16.636,1.418-24.956,1.423l-25.485.013L28.616,38.9l-25.489.013a14.291,14.291,0,0,1-2.913,0c-.328-2.554-.223-35.676,0-35.726,1.949-.442,3.907-.968,5.872-1.3A149.749,149.749,0,0,1,30.824,0c8.36-.022,16.714.408,25.065.805,8.285.395,16.561.655,24.854.652,7.854,0,15.857.106,23.465,2.658a20.214,20.214,0,0,1,9.232,5.749A14.5,14.5,0,0,1,116.968,20.3" transform="translate(-0.005 0)" />
</svg>
