<svg id=":share" xmlns="http://www.w3.org/2000/svg" width="28.589" height="28" viewBox="0 0 28.589 28">
  <path id=":postit" d="M28.526,25.11a3.8,3.8,0,0,1-.535,1.968v.282h-.246a1.8,1.8,0,0,1-.17.141,2.138,2.138,0,0,1-1,.353.206.206,0,0,1-.08.029,9.828,9.828,0,0,1-2.629.053c-1.1-.021-2.189-.094-3.279-.193-1.174-.107-2.353-.246-3.534-.382H3.947L2.2,27.767c-.428.1-.914.148-1.191-.269A2.351,2.351,0,0,1,.819,26.19v-.811a.254.254,0,0,1-.051-.136q-.234-2.8-.469-5.61c-.138-1.652-.321-3.31-.3-4.969S.269,11.379.42,9.739A74.332,74.332,0,0,0,.687.5C.845.368,1.006.239,1.174.12V.126Q2.109.046,3.047.018a73.191,73.191,0,0,1,7.745.306c1.265.1,2.529.185,3.795.251H23.9c.808-.034,1.618-.065,2.423-.047a3.536,3.536,0,0,1,.522.047h.623l.523.523v.308a2.083,2.083,0,0,1,.146.78c.008.6-.074,1.2-.1,1.8-.019.386-.033.774-.043,1.16V8.443c.1,4.3.525,8.6.589,12.9.019,1.254.019,2.513-.054,3.765" transform="translate(0 0)" fill="#ffd100"/>
  <g id="feather-share" data-name="feather-share" transform="translate(2 3)">
    <path  data-name="Tracciato 9548" d="M6,18v6.566a1.641,1.641,0,0,0,1.641,1.641H17.49a1.641,1.641,0,0,0,1.641-1.641V18" transform="translate(0 -6.793)" fill="none" stroke="#fff" stroke-linecap="round" stroke-linejoin="round" stroke-width="3"/>
    <path d="M18.566,6.283,15.283,3,12,6.283" transform="translate(-2.717)" fill="none" stroke="#fff" stroke-linecap="round" stroke-linejoin="round" stroke-width="3"/>
    <path d="M18,3V13.669" transform="translate(-5.434)" fill="none" stroke="#fff" stroke-linecap="round" stroke-linejoin="round" stroke-width="3"/>
  </g>
</svg>
