<svg xmlns="http://www.w3.org/2000/svg" width="28.59" height="28" viewBox="0 0 28.59 28">
  <path data-name="background"
    d="M28.526,25.11a3.8,3.8,0,0,1-.535,1.968v.282h-.246a1.8,1.8,0,0,1-.17.141,2.138,2.138,0,0,1-1,.353.206.206,0,0,1-.08.029,9.828,9.828,0,0,1-2.629.053c-1.1-.021-2.189-.094-3.279-.193-1.174-.107-2.353-.246-3.534-.382H3.947L2.2,27.767c-.428.1-.914.148-1.191-.269A2.351,2.351,0,0,1,.819,26.19v-.811a.254.254,0,0,1-.051-.136q-.234-2.8-.469-5.61c-.138-1.652-.321-3.31-.3-4.969S.269,11.379.42,9.739A74.332,74.332,0,0,0,.687.5C.845.368,1.006.239,1.174.12V.126Q2.109.046,3.047.018a73.191,73.191,0,0,1,7.745.306c1.265.1,2.529.185,3.795.251H23.9c.808-.034,1.618-.065,2.423-.047a3.536,3.536,0,0,1,.522.047h.623l.523.523v.308a2.083,2.083,0,0,1,.146.78c.008.6-.074,1.2-.1,1.8-.019.386-.033.774-.043,1.16V8.443c.1,4.3.525,8.6.589,12.9.019,1.254.019,2.513-.054,3.765"
    transform="translate(0 0)" fill="#ffd100" />
  <path data-name="heart"
    d="M90.771,107.789c-1.991,4.681-7.644,6.027-10.7,9.775a.371.371,0,0,1-.581-.075c-.939-2.085-2.821-3.435-4.624-4.732-1.671-1.2-3.521-2.465-4.531-4.316a4.488,4.488,0,0,1-.471-3.286,8.3,8.3,0,0,1,1.55-3.01c1.225-1.568,2.682-1.627,4.744-1.261,1.4.248,3.455,2.929,3.913,4.271,1.279-1.356,3.52-4.047,5.294-4.271,1.918-.242,3.551-.748,4.838.8a5.943,5.943,0,0,1,.57,6.1"
    transform="translate(-66.244 -94.658)" fill="#fff" />
</svg>
