<svg xmlns="http://www.w3.org/2000/svg" width="64.098" height="67.842" viewBox="0 0 64.098 67.842">
  <g transform="translate(30.295 33.009) rotate(-22)">
    <g transform="translate(-25.431 -27.294)">
      <path
        d="M49.105,92.384a21.586,21.586,0,0,1-13.458,12.39c-6.857,2.392-17.266,2.083-23.583-.613C-.187,98.932-1.115,86.113.732,72.921,1.8,65.264,9.937,61.68,16.19,61.236c2.262-.161,3.577,3.793,6.441,1.884,3.216-2.144,7.378-2.263,11.75-1.58C47.439,63.58,54.334,80.132,49.105,92.384Z"
        transform="translate(0 -51.802)" fill="#ff5600" />
      <path
        d="M168.107,3.012c-3.787,8.1-9.159,13.843-19.1,12.783a26.66,26.66,0,0,1-3.085-.517,1.945,1.945,0,0,1-1.388-2.584A20.475,20.475,0,0,1,150.22,4.1C154.017.845,159.336-.669,166.6.279A1.937,1.937,0,0,1,168.107,3.012Z"
        transform="translate(-122.298 0)" fill="#00966e" />
      <path
        d="M62.8,26.951c-5.534.431-10.278-.716-12.743-6.408a16.543,16.543,0,0,1-.664-1.824,1.207,1.207,0,0,1,.971-1.54,12.708,12.708,0,0,1,6.38.442c2.919,1.056,5.363,3.467,7.072,7.683A1.2,1.2,0,0,1,62.8,26.951Z"
        transform="translate(-41.781 -14.374)" fill="#00966e" />
    </g>
  </g>
</svg>
