<svg xmlns="http://www.w3.org/2000/svg" width="76.404" height="71.629" viewBox="0 0 76.404 71.629">
  <g transform="matrix(0.966, -0.259, 0.259, 0.966, 38.202, 35.814)">
    <path
      d="M4.654,1.038C2.915,6.732,3.787,13.263,1.309,19.055A24.3,24.3,0,0,0,3.277,39.169C12,54.8,31.479,59.72,47.492,55.745c7.3-1.386,11.037-8.873,16.287-12.585C64.8,31.248,41.564,47.924,27.03,36.516c-5-3.922-11.077-7.878-14.01-13.958-1.348-5.386-5.128-10.43-2.226-15.992.211-2.04,3.528-2.547,2.624-4.41C12.009-.9,7.063-.155,4.654,1.038Z"
      transform="translate(-31.905 -28.529)" fill="#ffd100" />
  </g>
</svg>
