<svg xmlns="http://www.w3.org/2000/svg" width="250.308" height="354.183" viewBox="0 0 250.308 354.183">
  <g id="Raggruppa_41811" data-name="Raggruppa 41811" transform="translate(-1583.996 -746.817)">
    <g id="nat-rapanello" transform="translate(1709.15 923.908)">
      <g id="Raggruppa_40319" data-name="Raggruppa 40319" transform="translate(-125.154 -177.092)">
        <path id="Tracciato_5581" data-name="Tracciato 5581" d="M27.281,49.944A41.483,41.483,0,0,0,29.969,63.07c1.581,4.568,3.585,9,4.9,13.652,1.4,4.972,1.7,10.231,3.81,15,2.074,4.684,5.659,8.495,7.912,13.092a46.642,46.642,0,0,1,3.919,13.125c1.5,9.259,1.256,18.685,2.3,27.991.606,5.423,2.057,10.685,1.282,16.17-.779,5.54-1.935,10.969-2.415,16.562-.325,3.857-.5,7.724-.613,11.59-.441-1.251-.923-2.487-1.434-3.681a120.925,120.925,0,0,1-4.639-11.2c-1.019-3.269-.7-7.148-2.248-10.2-1.732-3.4-5.567-3.482-8.9-3.9-3.994-.506-7.99-1.065-11.992-1.518-2.718-.312-5.8-.348-8.006,1.541a6.651,6.651,0,0,0-2.069,3.607c-.3,1.235-.088,3.324-1.083,4.249-.913.851-2.761.929-3.9,1.3a9.4,9.4,0,0,0-3.3,1.732A10.674,10.674,0,0,0,0,180c-.186,6.824,5.1,11.731,9.589,16.135,5.362,5.257,10.854,10.5,17.129,14.668a54.623,54.623,0,0,0,10.157,5.366c1.787.7,3.752,1.022,4.149,3.192a22.54,22.54,0,0,1-.084,5.049,374.324,374.324,0,0,1-5.631,48.722c-.364,2,1.965,2.866,3.47,2.345a6.933,6.933,0,0,1,4.2-.1,2.717,2.717,0,0,0,.536.095,2.294,2.294,0,0,0,1.02,1.177,2.7,2.7,0,0,0,3.017-.03,2.58,2.58,0,0,0,4.212-.972,36.811,36.811,0,0,0,9.15-6.774c11.806-11.885,18.17-28.09,28.828-40.919,10.339-12.443,24.706-20.068,39.75-25.37,7.524-2.658,15.251-4.778,22.99-6.7,8.239-2.044,16.693-3.736,25.224-3.442,9.169.317,17.915,3.272,26.875,4.952a86.47,86.47,0,0,0,26.169.51,7.466,7.466,0,0,0,6.781-6.144c.72-3.519-.771-6.727-2.806-9.525-5.458-7.511-11.87-14.479-17.78-21.635-2.621-3.177-4.8-6.277-9.2-6.646a49.325,49.325,0,0,1-13.08-2.544c-7.657-2.754-14.821-6.845-22.817-8.63-7.267-1.623-14.522-1.354-21.056,2.5-3.591,2.117-6.783,4.091-10.961,4.8-3.911.667-7.908.713-11.776,1.641-7.193,1.722-13.478,5.843-19.136,10.471-6.059,4.954-12.908,10.382-16.954,17.182-4.173,7.018-3.086,13.855-1.748,21.473.579,3.28,1.14,6.846-.133,10.039-1.448,3.619-5.032,5.79-7.646,8.489a38.508,38.508,0,0,0-6.138,9c0-.476,0-.956-.016-1.452-.088-3.965,2.558-6.668,4.057-10.141A26.305,26.305,0,0,0,82.207,206.5c.026-6.47-.08-14.176-4.374-19.409-1.623-1.977-4.59-4.105-6.889-6.513a19,19,0,0,0-2.98-10c1.1-.028,2.286.254,3.368.154a11.122,11.122,0,0,0,2.466-.525,13.932,13.932,0,0,0,5.132-3.123c3.429-3.225,5.243-7.439,7.108-11.667,2.136-4.841,4.7-8.431,9.34-11.078,3.8-2.168,8-3.9,11.224-6.953a18.659,18.659,0,0,0,5.559-11.813c.545-4.868-.249-9.767-.366-14.635-.132-5.781,1.464-10.708,3.482-16.062,1.677-4.452,3.057-9.023,2.677-13.829-.359-4.557-2.542-7.561-5.494-10.833a5.51,5.51,0,0,1-1.736-2.919c-.163-1.267.453-2.576.75-3.8a25.08,25.08,0,0,0,.736-6.356,26.576,26.576,0,0,0-3.676-13.2c-2.3-3.808-5.562-6.522-8.731-9.567a19.076,19.076,0,0,1-4.1-5.059c-.953-1.928-.9-3.951-1.3-6.018-.905-4.7-4.678-6.968-8.8-8.654A44.684,44.684,0,0,1,71.807,6.378c-3.693-3.4-6.581-8-12.253-5.81-4.392,1.694-8.346,5.29-11.5,8.683C41.2,16.617,36.109,25.75,31.562,34.663,29.135,39.428,27.215,44.519,27.281,49.944Z" transform="translate(12.585 0)" fill="#00966e"/>
        <path id="Tracciato_5582" data-name="Tracciato 5582" d="M870.937,1366.628a25.877,25.877,0,0,1,7.956-12.322,21.475,21.475,0,0,1,10.945-4.27,22.929,22.929,0,0,1,5.092-1.935c3.731-.91,7.736-.627,11.654-.524,1.011.027,2.033.041,3.046,0,1.614-.678,3.12-1.533,4.659-2.328,4.009-2.07,8.977-3.577,13.739-1.352a2.613,2.613,0,0,1,1.681,2.532,1.783,1.783,0,0,1,.56,2.119c-1.053,2.588-2.439,5.69-1.593,8.632a36.815,36.815,0,0,1,6.153,4.786c4.363,4.844,5.272,11.052,5.218,16.776-.065,6.953-.785,14.251-4.2,20.33-2.932,5.225-8.11,9-14.172,11.172a51.091,51.091,0,0,1-15.124,2.727,22.107,22.107,0,0,0-6.875,2.763c-2.818,1.921-2.906,5.108-5.1,7.4a6.109,6.109,0,0,1-7.834.606c-2.811-2.21-1.18-5.645-1.771-8.395-1.381-6.43-7-11.538-11.5-16.6-4.682-5.262-8.543-11.03-8.458-17.659C865.09,1375.62,867.5,1370.776,870.937,1366.628Zm46.371,17.973c.153-.238.3-.482.438-.728-.057,0-.114,0-.171,0Q917.448,1384.239,917.308,1384.6Zm5.076-37.1a2.313,2.313,0,0,0-.529.123,1.84,1.84,0,0,1-.12.347,2.735,2.735,0,0,1,.689-.177A1.762,1.762,0,0,1,922.384,1347.5Zm1.5,15.127c-.107-.123-.216-.245-.324-.367.01.075.016.15.026.224a2.092,2.092,0,0,1,.1.317c.027.139.05.277.076.416.083-.034.168-.066.255-.092C923.966,1362.957,923.923,1362.791,923.88,1362.625Z" transform="translate(-865.019 -1070.711)" fill="#e4002b"/>
      </g>
    </g>
    <g id="nat-Formaggio" transform="translate(1687.924 1066.641)">
      <g id="Raggruppa_40321" data-name="Raggruppa 40321" transform="translate(-55.521 -34.358)">
        <g id="Raggruppa_40320" data-name="Raggruppa 40320" transform="translate(0 12.739)">
          <path id="Tracciato_5583" data-name="Tracciato 5583" d="M.279,45.378c.122-1.691,1.035-1.613,1.737-1.723H54.93v.051q14.253,0,28.5,0c8.228,0,14.727.722,22.951.694a12.194,12.194,0,0,1,3.251.6c3.2,1.221-.062,7.047-.067,10.475a5.967,5.967,0,0,1-.079,2.219c-.334.764-1.353.551-2.071.778a1.785,1.785,0,0,0-.361.162,12,12,0,0,0-6.412,8.01c-.672,2.933-.64,3.927,1.149,8.284,1.163,2.831,3.855,4.447,6.76,5.411a1.29,1.29,0,0,1,1.033,1.5c-.037,4.93-.014,9.859-.023,14.789,0,1.746-.994,2.978-2.752,2.77-11.111-1.312-17.186.917-30.087.009-.814-.057-1.191-.051-1.066-1.158a11.212,11.212,0,0,0-3.007-9.238c-1.636-1.746-3.75-3.573-6.129-3.317-4.1.441-6.148,0-8.821,1.853a11.612,11.612,0,0,0-3.73,4.262,10.23,10.23,0,0,0-1.316,6.44c.172,1.107-.185,1.154-1.038,1.154-16.012-.009-29.551-2.469-48.03,0-2.439.327-3.672-.921-3.313-3.336C2.236,82.869-.915,61.886.279,45.378Zm89.41,44.787a4.708,4.708,0,0,0,4.538-4.66c.032-2.758-2.49-5.048-4.59-4.7-2.372-.389-4.667,2.6-4.614,4.723A4.945,4.945,0,0,0,89.689,90.165ZM80.474,71.541c4.884.32,9.435-3.951,9.845-8.579.538-6.072-4.764-9.963-9.916-9.97a9.554,9.554,0,0,0-9.357,9.4C71.016,66.882,75.441,71.869,80.474,71.541Zm-23.18-4.576c1.868-.472,4.927-1.836,4.488-4.755a4.394,4.394,0,0,0-4.536-4.528,4.82,4.82,0,0,0-4.69,4.675C52.57,64.656,55.04,67.535,57.294,66.965ZM24.9,79.253c.435,6.424,5.925,11.533,11.9,10.865,6.63-.742,11.724-5.845,11.191-12.476-.5-6.248-5.44-11.452-11.939-10.656C29.23,67.82,24.488,73.12,24.9,79.253ZM22.627,62.227a7.15,7.15,0,0,0,6.946-6.892c.487-3.672-2.364-6.491-6.7-6.478-4.176.013-7.162,2.916-7.235,6.429A6.943,6.943,0,0,0,22.627,62.227Z" transform="translate(0 -43.655)" fill="#ffd100"/>
        </g>
        <path id="Tracciato_5584" data-name="Tracciato 5584" d="M1.679,14.238c.928,0,1.872.123,2.784.038,1.435-.133,13.466.5,27.731.508,2.151,0,4.825.028,6.358.145,3.218.245,52.129,1.018,63.321.174,1.577-.119,6.921-.833,8.426-1.021a42.92,42.92,0,0,0-5.933-1.547c-4.8-1.2-9.706-2.292-14.572-3.43-4.83-1.13-9.644-2.286-14.5-3.386-3.165-.718-6.279-1.5-9.454-2.194-4.515-1-8.873-2.238-13.526-3.023A33.649,33.649,0,0,0,41.587.369,92.834,92.834,0,0,0,31.339,1.993,124.708,124.708,0,0,0,15.967,5.875C11.374,7.452,7.061,8.852,3.782,11.133c-1.114.775-2.335,1.574-2.773,2.6C.839,14.131.947,14.238,1.679,14.238Z" transform="translate(-0.665 0)" fill="#ff5600"/>
      </g>
    </g>
  </g>
</svg>
