<svg xmlns="http://www.w3.org/2000/svg" width="144.512" height="130.321" viewBox="0 0 144.512 130.321">
  <g id="Raggruppa_41810" data-name="Raggruppa 41810" transform="translate(-184.744 -970.679)">
    <g id="nat-pera" transform="translate(282.138 1035.839)">
      <g id="Raggruppa_40317" data-name="Raggruppa 40317" transform="translate(-47.118 -65.161)">
        <g id="GbJgAY" transform="translate(0 19.138)">
          <g id="Raggruppa_40316" data-name="Raggruppa 40316">
            <path id="Tracciato_5577" data-name="Tracciato 5577" d="M51.117,46.825a25.829,25.829,0,0,1,14.206,7.12c5.1,4.917,9.292,10.41,10.556,17.217.527,2.841,0,6.168,1.811,8.474,2.575,3.271,5.582,6.222,7.971,9.614a46.069,46.069,0,0,1,6.515,13.316A47.688,47.688,0,0,1,94.15,119.3a40.353,40.353,0,0,1-3.12,13.677A38.077,38.077,0,0,1,79.9,147.59a39.524,39.524,0,0,1-12.013,6.761,54.549,54.549,0,0,1-9.029,2.639,65.08,65.08,0,0,1-16.754.777c-4.146-.393-8.746-.024-12.673-1.24A43.625,43.625,0,0,1,16.9,150.4c-4.167-2.976-7.173-7.69-9.941-11.989a38.508,38.508,0,0,1-5.776-15.291c-.748-4.961-1.68-10.941-.877-15.9,1.319-8.129,2.159-11.888,7.108-18.3,2.861-4.087,7.075-5.53,8.546-7.366A22.573,22.573,0,0,0,21.3,69.366a21.006,21.006,0,0,1,1.829-5.957,27.524,27.524,0,0,1,8.736-11.5,23.3,23.3,0,0,1,12.11-5.046Z" transform="translate(0 -46.825)" fill="#ffd100"/>
          </g>
        </g>
        <path id="Tracciato_5578" data-name="Tracciato 5578" d="M142.93,4.486c-5.641,12.066-13.641,20.618-28.441,19.039a39.75,39.75,0,0,1-4.594-.77,2.9,2.9,0,0,1-2.068-3.849,30.493,30.493,0,0,1,8.462-12.8c5.655-4.847,13.578-7.1,24.4-5.69A2.885,2.885,0,0,1,142.93,4.486Z" transform="translate(-63.646 0)" fill="#00966e"/>
      </g>
    </g>
    <g id="nat-fragola" transform="translate(224.193 1070.291)">
      <g id="Raggruppa_40318" data-name="Raggruppa 40318" transform="translate(-39.449 -30.709)">
        <path id="Tracciato_5579" data-name="Tracciato 5579" d="M68.43,49.246c1.547-1.708,1.073-4.523.618-6.58-.948-4.292-3.375-8.128-5.51-11.91a1.559,1.559,0,0,0-.4-.476q-.6-1.032-1.239-2.037-1.492-2.349-3.171-4.573-.462-.893-.982-1.758A53.382,53.382,0,0,0,49.1,11.349c-1.66-1.621-3.38-3.175-5.122-4.708a43.739,43.739,0,0,0-5.19-4.083A15.523,15.523,0,0,0,32.8.165a21.818,21.818,0,0,0-6.831.271c-3.7.614-7.8,1.743-10.313,4.641-.07.062-.142.124-.211.187a1.464,1.464,0,0,0-.436.654q-.2.294-.382.608l-.051.043a12.266,12.266,0,0,0-4.205,8.3,25.864,25.864,0,0,0,.08,3.089,4.744,4.744,0,0,1-.8,2.8C8.5,22.636,7.2,24.406,6.081,26.3a52.92,52.92,0,0,0-3.093,6.028,39.829,39.829,0,0,0-2.18,6.367A21.879,21.879,0,0,0,.03,45.217a10.987,10.987,0,0,0,2.679,6.419A33.534,33.534,0,0,0,7.63,56.491a22.057,22.057,0,0,0,6.2,3.6,23.1,23.1,0,0,0,6.533,1.26,44.414,44.414,0,0,0,7.206-.192,55.354,55.354,0,0,0,6.7.131c6.21-.237,12.688-.772,18.1-4.112,1.187-.734,2.346-1.557,3.6-2.185a57.809,57.809,0,0,0,6.392-2.16,27.96,27.96,0,0,0,3.186-1.544A11.71,11.71,0,0,0,68.43,49.246Z" transform="translate(9.406 0)" fill="#e4002b"/>
        <path id="Tracciato_5580" data-name="Tracciato 5580" d="M938.279,156.361a10.064,10.064,0,0,1-4.514-3.493,6.834,6.834,0,0,1-.815-4.514,9.845,9.845,0,0,1,4.725-6.661L927.1,143.368a1,1,0,0,1-1.078-.661.766.766,0,0,1-.178-.257,1.937,1.937,0,0,1,1.874-2.636,21.066,21.066,0,0,1,2.328.092h.017a37.64,37.64,0,0,1,8.57-1.4,5.747,5.747,0,0,1-.294-4.056c.322-1.159.9-2.266,1.116-3.455q-1.271-2.092-2.393-4.272a.842.842,0,0,1,.456-1.22.765.765,0,0,1,.984.01,17.762,17.762,0,0,1,3.591,3.5q-.148-.889-.365-1.769c-.244-.982-1.116-2.522-.444-3.465.813-1.141,2.087-.285,2.71.539,1.549,2.048,1.395,5.073,1.324,7.507q-.029,1-.115,2a3.57,3.57,0,0,1,.434-.132c.49-.116,1.153-.05,1.534-.416.782-.751,1.888.3,1.4,1.182a21.793,21.793,0,0,1-4.3,5.471.926.926,0,0,1-.071.139,8.5,8.5,0,0,1,2.168,1.934.932.932,0,0,1-.965,1.5l-2.4-.806c0,.015.006.029.008.044a4.034,4.034,0,0,1-.443,2.454,10.951,10.951,0,0,1,.111,2.151,3.132,3.132,0,0,1-2.253,2.835,2.246,2.246,0,0,1-1.645-.208,1.285,1.285,0,0,1-.195-.139,3.805,3.805,0,0,0-.572,2.179,4.138,4.138,0,0,0,1.434,2.944C940.306,155.71,939.132,156.777,938.279,156.361Z" transform="translate(-925.689 -115.785)" fill="#00966e"/>
      </g>
    </g>
  </g>
</svg>
