<svg xmlns="http://www.w3.org/2000/svg" width="80.113" height="60.523" viewBox="0 0 80.113 60.523">
  <g transform="translate(42.988 32.725) rotate(19)">
    <g transform="translate(-37.567 -22.936)">
      <g transform="translate(0 1.261)">
        <path
          d="M93.511,20.438A2.233,2.233,0,0,1,95.6,19.05a.2.2,0,0,0,.13-.066,2.554,2.554,0,0,1,2.076-.618c3.207.174,7.09.45,10.01-.5a.2.2,0,0,0,.111-.09,16.211,16.211,0,0,1,2.976-4.286c3.732-3.33,10.231-4.893,16.549-5.821a99.887,99.887,0,0,1,20.965-1.254,1.437,1.437,0,0,1,1.339,1.433V49.411a1.465,1.465,0,0,1-1.56,1.465,59.276,59.276,0,0,1-8.734-1.29.186.186,0,0,0-.036,0,53.673,53.673,0,0,1-16.458-2.527,20.877,20.877,0,0,1-8.688-5.58.185.185,0,0,0-.05-.038,22.028,22.028,0,0,1-3.968-2.6c-2.368-2-3.525-4.36-4.849-6.64-.333-.576-.686-1.155-1.088-1.724a.2.2,0,0,0-.06-.057c-1.329-.808-2.808-1.528-4.234-2.278C96.288,26.174,92.807,23.559,93.511,20.438Zm47.819-.658c.3.008.6.018.9.032-.318-.048-.64-.091-.962-.131A.958.958,0,0,1,141.33,19.78Zm-25.755.118a.167.167,0,0,0,.031-.009,2.315,2.315,0,0,1,.3-.1c.143-.04.286-.076.429-.115l0,0-.709.045c-.09.077-.178.154-.267.233ZM99.817,23.341a.194.194,0,0,0,.115.036c.118,0,.239,0,.362.013a2.27,2.27,0,0,1-.368-.286.2.2,0,0,0-.19-.053c-.064.016-.13.031-.2.042A1.559,1.559,0,0,0,99.817,23.341Z"
          transform="translate(-93.42 -6.267)" fill="#00966e" />
      </g>
      <path
        d="M73.865,30.27c0,1.369,1.19,2.875,2.479,2.479,1.309-.4,2.479-.4,2.479-2.479a2.4,2.4,0,0,0-2.479-2.479A2.7,2.7,0,0,0,73.865,30.27Z"
        transform="translate(-18.55 -22.184)" fill="#ffd100" />
      <path
        d="M38.228,43.971c0,1.369,1.19,2.875,2.479,2.479,1.308-.4,2.479-.4,2.479-2.479a2.4,2.4,0,0,0-2.479-2.479A2.7,2.7,0,0,0,38.228,43.971Z"
        transform="translate(24.257 -33.128)" fill="#ffd100" />
      <path
        d="M61.046,62.12c0,1.369,1.19,2.876,2.479,2.479C64.833,64.2,66,64.2,66,62.12a2.4,2.4,0,0,0-2.479-2.479A2.7,2.7,0,0,0,61.046,62.12Z"
        transform="translate(-3.152 -47.626)" fill="#ffd100" />
      <path
        d="M29.41,79.821c0,1.369,1.19,2.875,2.479,2.479,1.308-.4,2.479-.4,2.479-2.479a2.4,2.4,0,0,0-2.479-2.479A2.7,2.7,0,0,0,29.41,79.821Z"
        transform="translate(34.85 -61.765)" fill="#ffd100" />
      <path
        d="M81.456,157.791c0-1.369,1.19-2.875,2.479-2.479,1.309.4,2.479.4,2.479,2.479a2.4,2.4,0,0,1-2.479,2.479A2.7,2.7,0,0,1,81.456,157.791Z"
        transform="translate(-27.668 -124.012)" fill="#ffd100" />
      <path
        d="M47.576,147.521c0-1.063.924-2.232,1.924-1.924,1.016.312,1.924.308,1.924,1.924a1.866,1.866,0,0,1-1.924,1.924A2.1,2.1,0,0,1,47.576,147.521Z"
        transform="translate(14.138 -116.263)" fill="#ffd100" />
      <path
        d="M68.637,125.941c0-1.369,1.19-2.875,2.479-2.479,1.308.4,2.479.4,2.479,2.479a2.4,2.4,0,0,1-2.479,2.479A2.7,2.7,0,0,1,68.637,125.941Z"
        transform="translate(-12.27 -98.57)" fill="#ffd100" />
      <path
        d="M36,116.24c0-1.369,1.19-2.875,2.479-2.479,1.308.4,2.479.4,2.479,2.479a2.4,2.4,0,0,1-2.479,2.479A2.7,2.7,0,0,1,36,116.24Z"
        transform="translate(26.932 -90.821)" fill="#ffd100" />
      <path
        d="M20.065,35.963c-.408.517-.408,1.441.2,1.675s1.054.589,1.675-.2a1.157,1.157,0,0,0-.2-1.675A1.3,1.3,0,0,0,20.065,35.963Z"
        transform="translate(48.951 -28.4)" fill="#ffd100" />
      <path
        d="M11.828,57.333c-.72.913-.72,2.544.349,2.958,1.085.42,1.862,1.04,2.958-.349a2.043,2.043,0,0,0-.349-2.958A2.294,2.294,0,0,0,11.828,57.333Z"
        transform="translate(57.252 -45.22)" fill="#ffd100" />
      <path
        d="M8.588,97.413c-.717.909-.713,2.536.355,2.951,1.084.422,1.861,1.041,2.952-.341a2.039,2.039,0,0,0-.355-2.951A2.289,2.289,0,0,0,8.588,97.413Z"
        transform="translate(61.147 -77.24)" fill="#ffd100" />
      <path
        d="M12.043,129.326c-.721.913-.72,2.544.349,2.958,1.085.42,1.862,1.04,2.958-.349A2.043,2.043,0,0,0,15,128.977,2.294,2.294,0,0,0,12.043,129.326Z"
        transform="translate(56.993 -102.728)" fill="#ffd100" />
      <path
        d="M76.181,196.93c.72-.913,2.307-1.292,2.958-.348s1.445,1.569.349,2.958a2.043,2.043,0,0,1-2.958.349A2.294,2.294,0,0,1,76.181,196.93Z"
        transform="translate(-20.147 -156.592)" fill="#ffd100" />
      <path
        d="M47.813,197.094c.505-.64,1.618-.906,2.074-.244s1.013,1.1.244,2.074a1.432,1.432,0,0,1-2.074.244A1.608,1.608,0,0,1,47.813,197.094Z"
        transform="translate(15.056 -156.937)" fill="#ffd100" />
      <path
        d="M25.889,166.442c.716-.907,2.293-1.284,2.94-.346s1.436,1.56.346,2.94a2.03,2.03,0,0,1-2.94.346A2.28,2.28,0,0,1,25.889,166.442Z"
        transform="translate(40.287 -132.243)" fill="#ffd100" />
      <path
        d="M.291,164.8c.525-.665,1.679-.94,2.153-.254S3.5,165.691,2.7,166.7a1.487,1.487,0,0,1-2.153.254A1.67,1.67,0,0,1,.291,164.8Z"
        transform="translate(72.039 -131.123)" fill="#ffd100" />
      <path
        d="M58.521,172.8c.528-.669,1.691-.947,2.169-.256s1.059,1.15.256,2.169a1.5,1.5,0,0,1-2.169.256A1.682,1.682,0,0,1,58.521,172.8Z"
        transform="translate(2.073 -137.508)" fill="#ffd100" />
      <path
        d="M61.908,95.808c-.609.771-.605,2.151.3,2.5s1.579.883,2.5-.289a1.729,1.729,0,0,0-.3-2.5A1.941,1.941,0,0,0,61.908,95.808Z"
        transform="translate(-2.343 -76.046)" fill="#ffd100" />
      <path
        d="M85.146,87.989c-.608.771-.6,2.151.3,2.5s1.579.883,2.5-.289a1.729,1.729,0,0,0-.3-2.5A1.941,1.941,0,0,0,85.146,87.989Z"
        transform="translate(-30.257 -69.8)" fill="#ffd100" />
      <path
        d="M51.42,20.135c0,1.086.944,2.282,1.967,1.967,1.038-.32,1.967-.315,1.967-1.967a1.908,1.908,0,0,0-1.967-1.967A2.142,2.142,0,0,0,51.42,20.135Z"
        transform="translate(9.434 -14.5)" fill="#ffd100" />
      <path
        d="M80.334,1.8c0,.985.856,2.07,1.784,1.784S83.9,3.3,83.9,1.8A1.731,1.731,0,0,0,82.118.015,1.943,1.943,0,0,0,80.334,1.8Z"
        transform="translate(-24.931 0)" fill="#ffd100" />
      <path
        d="M20.786,190.995c.4-.51,1.289-.722,1.653-.195s.807.877.195,1.653a1.142,1.142,0,0,1-1.653.195A1.282,1.282,0,0,1,20.786,190.995Z"
        transform="translate(48.057 -152.167)" fill="#ffd100" />
    </g>
  </g>
</svg>
