<svg xmlns="http://www.w3.org/2000/svg" width="72.508" height="61.433" viewBox="0 0 72.508 61.433">
  <g transform="translate(36.254 30.717)">
    <g transform="translate(-36.254 -30.717)">
      <path
        d="M247.338,1.623c-.087,2.627-.979,4.886-4.189,6.083-.318.119-.657.227-1.022.324a.574.574,0,0,1-.774-.455,5.643,5.643,0,0,1,.606-3.033,7.682,7.682,0,0,1,4.549-3.394A.576.576,0,0,1,247.338,1.623Z"
        transform="translate(-200.139 -0.915)" fill="#653818" />
      <path
        d="M47.578,69.771c-5.28,6.123-13.05,9.344-20.994,10.021-7.661.656-17.313-.524-22.741-6.584-4.5-5.023-5.783-13.213.194-16.685a14.614,14.614,0,0,0,2.4-1.69c.177-.157.313-.275.417-.374,1.7-1.616,2.615-3.848,3.586-5.949a38.471,38.471,0,0,0,2.385-7.182,24.045,24.045,0,0,1,5.4-10.7c5.836-6.481,15.182-10.248,23.191-7.25a17.19,17.19,0,0,1,3.171,1.629c1.4.911,2.1,2.228,2.7,2.593a13.6,13.6,0,0,1,5.173,5.849c2.089,4.49.45,8.092,1.1,13.049C54.651,54.772,53.117,63.344,47.578,69.771Z"
        transform="translate(0 -18.52)" fill="#ffd100" />
      <path
        d="M286.471,28.279c-12.313-2.154-22.019-7.306-24.215-21.1a37.307,37.307,0,0,1-.428-4.351,2.718,2.718,0,0,1,2.98-2.816,28.616,28.616,0,0,1,13.669,4.53c5.776,3.935,9.761,10.56,11.133,20.711A2.707,2.707,0,0,1,286.471,28.279Z"
        transform="translate(-217.126 0)" fill="#00966e" />
    </g>
  </g>
</svg>
