<svg xmlns="http://www.w3.org/2000/svg" width="55.18" height="63.668" viewBox="0 0 55.18 63.668">
  <g transform="translate(32.896 34.826) rotate(-19)">
    <g transform="translate(-25.082 -28.197)">
      <path
        d="M26.216,14.633A11.92,11.92,0,0,0,33,13.026h0c3.021-1.762,6.665-2.04,10.162-2.047a16.358,16.358,0,0,1,6.863,1.078.1.1,0,0,0,.132-.112,3.313,3.313,0,0,0-1.871-1.86c-3.195-1.625-6.857-2-10.424-2.353a31.944,31.944,0,0,0-6.793-.162.1.1,0,0,1-.1-.114A9.943,9.943,0,0,1,32.66,3.75,15.965,15.965,0,0,1,36.392.237a.1.1,0,0,0-.046-.173A16.419,16.419,0,0,0,23.457,4.88a.6.6,0,0,1-.378.224.6.6,0,0,1-.353-.19c-3.834-3.315-8.96-3.892-13.6-2.727a.1.1,0,0,0,0,.183,28.761,28.761,0,0,1,8.766,4.291,9.134,9.134,0,0,1,1.662,1.49.1.1,0,0,1-.1.153,24.393,24.393,0,0,0-12.563-.88c-2.754.641-5.48,2.1-6.874,4.551a.1.1,0,0,0,.113.136,29.639,29.639,0,0,1,18.666.2,13.658,13.658,0,0,1,3.525,1.9,1.039,1.039,0,0,0,.55.2Z"
        transform="translate(0 0)" fill="#00966e" />
      <g transform="translate(4.099 9.668)">
        <path
          d="M38.05,60.789a4.421,4.421,0,0,0,4.367-4.937c-.356-2.491-2.23-4.937-4.747-4.937-2.658,0-3.8,2.485-4.367,4.937C32.733,58.32,35.533,60.789,38.05,60.789Z"
          transform="translate(-31.018 -50.915)" fill="#e4002b" />
        <path
          d="M83.7,58.441a4.421,4.421,0,0,1,4.937-4.367c2.491.356,4.937,2.23,4.937,4.747,0,2.658-2.485,3.8-4.937,4.367C86.17,63.758,83.7,60.958,83.7,58.441Z"
          transform="translate(-71.908 -53.44)" fill="#e4002b" />
        <path
          d="M143.382,53.34a4.421,4.421,0,0,1,4.367,4.937c-.356,2.492-2.23,4.937-4.747,4.937-2.658,0-3.8-2.485-4.367-4.937C138.065,55.808,140.865,53.34,143.382,53.34Z"
          transform="translate(-116.35 -52.88)" fill="#e4002b" />
        <path
          d="M188.448,61.061a4.421,4.421,0,0,0,4.937,4.367c2.492-.356,4.937-2.23,4.937-4.747,0-2.658-2.484-3.8-4.937-4.367C190.916,55.744,188.448,58.544,188.448,61.061Z"
          transform="translate(-156.765 -55.228)" fill="#e4002b" />
        <path
          d="M63.711,108.794a4.421,4.421,0,0,0,4.367-4.937c-.356-2.492-2.23-4.937-4.747-4.937-2.658,0-3.8,2.484-4.367,4.937C58.394,106.325,61.194,108.794,63.711,108.794Z"
          transform="translate(-51.806 -89.805)" fill="#e4002b" />
        <path
          d="M109.363,106.446a4.421,4.421,0,0,1,4.937-4.367c2.492.356,4.937,2.23,4.937,4.747,0,2.658-2.484,3.8-4.937,4.367C111.831,111.763,109.363,108.963,109.363,106.446Z"
          transform="translate(-92.696 -92.33)" fill="#e4002b" />
        <path
          d="M169.043,101.345a4.421,4.421,0,0,1,4.367,4.937c-.356,2.491-2.23,4.937-4.747,4.937-2.658,0-3.8-2.485-4.367-4.937C163.726,103.813,166.526,101.345,169.043,101.345Z"
          transform="translate(-137.138 -91.77)" fill="#e4002b" />
        <path
          d="M193.155,161.148a4.421,4.421,0,0,1-4.367-4.937c.356-2.492,2.23-4.937,4.747-4.937,2.658,0,3.8,2.484,4.367,4.937C198.472,158.679,195.672,161.148,193.155,161.148Z"
          transform="translate(-157.006 -132.218)" fill="#e4002b" />
        <path
          d="M144.762,154.8a4.421,4.421,0,0,0-4.937-4.367c-2.492.356-4.937,2.23-4.937,4.747,0,2.658,2.485,3.8,4.937,4.367C142.293,160.117,144.762,157.317,144.762,154.8Z"
          transform="translate(-113.375 -131.503)" fill="#e4002b" />
        <path
          d="M87.823,149.7a4.421,4.421,0,0,0-4.367,4.937c.356,2.491,2.23,4.937,4.747,4.937,2.658,0,3.8-2.485,4.367-4.937C93.14,152.167,90.34,149.7,87.823,149.7Z"
          transform="translate(-71.674 -130.942)" fill="#e4002b" />
        <path
          d="M40.016,152.42a4.421,4.421,0,0,1-4.937,4.367c-2.492-.356-4.937-2.23-4.937-4.747,0-2.658,2.484-3.8,4.937-4.367C37.547,147.1,40.016,149.9,40.016,152.42Z"
          transform="translate(-28.518 -129.24)" fill="#e4002b" />
        <path
          d="M222.224,108.884a3.161,3.161,0,0,1,3.122,3.53c-.254,1.781-1.594,3.53-3.394,3.53-1.9,0-2.718-1.776-3.123-3.53S220.424,108.884,222.224,108.884Z"
          transform="translate(-181.335 -97.877)" fill="#e4002b" />
        <path
          d="M24.739,105.884a3.161,3.161,0,0,0-3.123,3.53c.254,1.781,1.595,3.53,3.394,3.53,1.9,0,2.718-1.776,3.122-3.53S26.538,105.884,24.739,105.884Z"
          transform="translate(-21.586 -95.447)" fill="#e4002b" />
        <path
          d="M174.206,207.081a4.421,4.421,0,0,0-4.937-4.367c-2.492.356-4.937,2.23-4.937,4.747,0,2.658,2.484,3.8,4.937,4.367C171.737,212.4,174.206,209.6,174.206,207.081Z"
          transform="translate(-137.228 -173.857)" fill="#e4002b" />
        <path
          d="M117.68,211.853a4.421,4.421,0,0,0,4.367-4.937c-.356-2.491-2.23-4.937-4.747-4.937-2.658,0-3.8,2.485-4.367,4.937C112.363,209.384,115.163,211.853,117.68,211.853Z"
          transform="translate(-95.528 -173.296)" fill="#e4002b" />
        <path
          d="M68.459,206.7a4.421,4.421,0,0,1-4.937,4.367c-2.491-.356-4.937-2.23-4.937-4.747,0-2.658,2.485-3.8,4.937-4.367C65.99,201.384,68.459,204.184,68.459,206.7Z"
          transform="translate(-51.56 -173.215)" fill="#e4002b" />
        <path
          d="M144.826,254.666a3.592,3.592,0,0,1,3.549,4.011c-.289,2.024-1.812,4.011-3.857,4.011-2.16,0-3.089-2.019-3.548-4.011S142.781,254.666,144.826,254.666Z"
          transform="translate(-118.252 -215.979)" fill="#e4002b" />
        <path
          d="M104.833,261.08a3.592,3.592,0,0,0-4.011-3.548c-2.024.289-4.011,1.812-4.011,3.857,0,2.16,2.019,3.089,4.011,3.549S104.833,263.125,104.833,261.08Z"
          transform="translate(-82.527 -218.273)" fill="#e4002b" />
      </g>
    </g>
  </g>
</svg>
