<svg xmlns="http://www.w3.org/2000/svg" width="273.524" height="237.024" viewBox="0 0 273.524 237.024">
  <g id="fruit" transform="translate(-633.568 -691.165)">
    <g id="nat-inger_lime" data-name="nat-inger lime" transform="translate(721.497 837.645) rotate(21)">
      <g id="Raggruppa_40584" data-name="Raggruppa 40584" transform="translate(-82.951 -50.645)">
        <g id="limone" transform="translate(41.503 2.784)">
          <path id="Tracciato_6132" data-name="Tracciato 6132" d="M217.617,37.558C217.266,36,215.366,34.7,213,34.492a.439.439,0,0,1-.287-.145c-.8-.881-2.326-1.489-4.583-1.366-7.081.383-15.655.994-22.1-1.107a.444.444,0,0,1-.245-.2c-1.949-3.371-3.631-6.848-6.57-9.463-8.241-7.352-22.591-10.8-36.54-12.852C127.81,7.18,111.9,5.546,96.377,6.591A3.172,3.172,0,0,0,93.42,9.755v91.776a3.236,3.236,0,0,0,3.444,3.235,130.884,130.884,0,0,0,19.285-2.848.41.41,0,0,1,.08-.01c12.634-.247,25.272-1.7,36.34-5.579a46.1,46.1,0,0,0,19.184-12.322.409.409,0,0,1,.11-.083,48.64,48.64,0,0,0,8.761-5.739c5.229-4.42,7.783-9.627,10.707-14.661.736-1.271,1.514-2.551,2.4-3.806a.452.452,0,0,1,.133-.125c2.934-1.784,6.2-3.374,9.349-5.029C211.486,50.223,219.172,44.448,217.617,37.558ZM112.03,36.1c-.666.018-1.329.04-1.991.071.7-.107,1.413-.2,2.124-.289A2.111,2.111,0,0,0,112.03,36.1Zm56.869.26a.369.369,0,0,1-.068-.021,5.111,5.111,0,0,0-.66-.226c-.315-.089-.631-.169-.946-.253l.009-.005,1.566.1c.2.171.394.341.589.515C169.227,36.436,169.061,36.4,168.9,36.365Zm34.8,7.6a.428.428,0,0,1-.254.079c-.26,0-.528.007-.8.029a5.014,5.014,0,0,0,.812-.631.439.439,0,0,1,.419-.116c.142.036.287.068.436.094A3.442,3.442,0,0,1,203.695,43.967Z" transform="translate(-93.42 -6.267)" fill="#00966e"/>
        </g>
        <path id="Tracciato_6133" data-name="Tracciato 6133" d="M84.812,33.289c0,3.023-2.627,6.349-5.473,5.473-2.889-.889-5.473-.876-5.473-5.473,0-3.023,2.627-5.911,5.473-5.473C82.326,28.275,84.812,30.443,84.812,33.289Z" transform="translate(-41.05 -15.434)" fill="#ffd100"/>
        <path id="Tracciato_6134" data-name="Tracciato 6134" d="M49.175,46.99c0,3.023-2.627,6.349-5.473,5.473-2.889-.889-5.473-.876-5.473-5.473,0-3.023,2.627-5.911,5.473-5.473C46.689,41.976,49.175,44.144,49.175,46.99Z" transform="translate(-21.245 -23.048)" fill="#ffd100"/>
        <path id="Tracciato_6135" data-name="Tracciato 6135" d="M71.993,65.139c0,3.023-2.627,6.349-5.473,5.473-2.889-.889-5.474-.876-5.474-5.473,0-3.023,2.627-5.911,5.474-5.473C69.507,60.126,71.993,62.293,71.993,65.139Z" transform="translate(-33.926 -33.134)" fill="#ffd100"/>
        <path id="Tracciato_6136" data-name="Tracciato 6136" d="M40.357,82.84c0,3.023-2.627,6.349-5.473,5.473-2.889-.889-5.473-.876-5.473-5.473,0-3.023,2.627-5.911,5.473-5.473C37.871,77.826,40.357,79.994,40.357,82.84Z" transform="translate(-16.344 -42.971)" fill="#ffd100"/>
        <path id="Tracciato_6137" data-name="Tracciato 6137" d="M92.4,160.863c0-3.023-2.627-6.349-5.473-5.473-2.889.889-5.473.876-5.473,5.473,0,3.023,2.627,5.911,5.473,5.473C89.917,165.877,92.4,163.709,92.4,160.863Z" transform="translate(-45.269 -86.277)" fill="#ffd100"/>
        <path id="Tracciato_6138" data-name="Tracciato 6138" d="M56.073,149.906c0-2.346-2.04-4.928-4.249-4.248-2.243.69-4.248.68-4.248,4.248,0,2.347,2.039,4.589,4.248,4.249C54.144,153.8,56.073,152.115,56.073,149.906Z" transform="translate(-26.44 -80.887)" fill="#ffd100"/>
        <path id="Tracciato_6139" data-name="Tracciato 6139" d="M79.584,129.013c0-3.023-2.627-6.349-5.473-5.473-2.889.889-5.473.876-5.473,5.473,0,3.023,2.627,5.911,5.473,5.473C77.1,134.027,79.584,131.859,79.584,129.013Z" transform="translate(-38.144 -68.577)" fill="#ffd100"/>
        <path id="Tracciato_6140" data-name="Tracciato 6140" d="M46.948,119.312c0-3.023-2.627-6.349-5.473-5.473-2.889.889-5.473.876-5.473,5.473,0,3.023,2.627,5.911,5.473,5.473C44.462,124.326,46.948,122.158,46.948,119.312Z" transform="translate(-20.007 -63.186)" fill="#ffd100"/>
        <path id="Tracciato_6141" data-name="Tracciato 6141" d="M24.5,36.457c.9,1.142.9,3.181-.436,3.7-1.356.526-2.328,1.3-3.7-.436a2.555,2.555,0,0,1,.436-3.7A2.869,2.869,0,0,1,24.5,36.457Z" transform="translate(-10.993 -19.759)" fill="#ffd100"/>
        <path id="Tracciato_6142" data-name="Tracciato 6142" d="M19.662,58.206c1.591,2.016,1.59,5.618-.77,6.532-2.4.928-4.112,2.3-6.532-.77-1.591-2.016-1.359-5.326.77-6.532C15.365,56.17,18.164,56.308,19.662,58.206Z" transform="translate(-6.294 -31.461)" fill="#ffd100"/>
        <path id="Tracciato_6143" data-name="Tracciato 6143" d="M16.418,98.279c1.584,2.007,1.574,5.6-.783,6.516-2.393.931-4.11,2.3-6.519-.753-1.584-2.007-1.345-5.308.783-6.516C12.133,96.258,14.927,96.39,16.418,98.279Z" transform="translate(-4.496 -53.738)" fill="#ffd100"/>
        <path id="Tracciato_6144" data-name="Tracciato 6144" d="M19.878,130.2c1.591,2.016,1.59,5.618-.77,6.532-2.4.928-4.112,2.3-6.532-.77-1.591-2.016-1.359-5.326.77-6.532C15.581,128.163,18.379,128.3,19.878,130.2Z" transform="translate(-6.413 -71.47)" fill="#ffd100"/>
        <path id="Tracciato_6145" data-name="Tracciato 6145" d="M84.29,198.013c-1.591-2.016-5.094-2.852-6.532-.769-1.459,2.114-3.19,3.465-.77,6.532,1.591,2.016,4.864,2.56,6.532.77C85.271,202.666,85.789,199.912,84.29,198.013Z" transform="translate(-42.115 -108.944)" fill="#ffd100"/>
        <path id="Tracciato_6146" data-name="Tracciato 6146" d="M53.5,197.854c-1.116-1.414-3.572-2-4.58-.54-1.023,1.482-2.237,2.43-.54,4.58,1.116,1.414,3.411,1.8,4.58.54A3.552,3.552,0,0,0,53.5,197.854Z" transform="translate(-26.416 -109.184)" fill="#ffd100"/>
        <path id="Tracciato_6147" data-name="Tracciato 6147" d="M33.948,167.518c-1.582-2-5.063-2.834-6.492-.765-1.45,2.1-3.17,3.444-.765,6.492,1.581,2,4.834,2.544,6.492.765C34.923,172.142,35.437,169.405,33.948,167.518Z" transform="translate(-14.167 -92.004)" fill="#ffd100"/>
        <path id="Tracciato_6148" data-name="Tracciato 6148" d="M6.194,165.59c-1.158-1.468-3.708-2.076-4.755-.561-1.062,1.539-2.322,2.523-.56,4.755,1.158,1.468,3.541,1.864,4.755.56A3.687,3.687,0,0,0,6.194,165.59Z" transform="translate(0 -91.225)" fill="#ffd100"/>
        <path id="Tracciato_6149" data-name="Tracciato 6149" d="M64.465,173.594c-1.166-1.478-3.734-2.091-4.788-.564-1.069,1.55-2.338,2.54-.564,4.788,1.167,1.478,3.566,1.877,4.788.564A3.713,3.713,0,0,0,64.465,173.594Z" transform="translate(-32.36 -95.667)" fill="#ffd100"/>
        <path id="Tracciato_6150" data-name="Tracciato 6150" d="M68.549,96.543c1.344,1.7,1.336,4.749-.664,5.527-2.03.789-3.486,1.951-5.53-.639-1.343-1.7-1.141-4.5.664-5.527C64.914,94.829,67.284,94.941,68.549,96.543Z" transform="translate(-34.17 -52.907)" fill="#ffd100"/>
        <path id="Tracciato_6151" data-name="Tracciato 6151" d="M91.787,88.724c1.343,1.7,1.335,4.749-.664,5.527-2.03.789-3.486,1.951-5.529-.639-1.344-1.7-1.141-4.5.664-5.527C88.152,87.01,90.522,87.122,91.787,88.724Z" transform="translate(-47.084 -48.561)" fill="#ffd100"/>
        <path id="Tracciato_6152" data-name="Tracciato 6152" d="M60.107,22.531c0,2.4-2.085,5.038-4.344,4.344-2.293-.705-4.344-.7-4.344-4.344,0-2.4,2.085-4.691,4.344-4.344C58.135,18.552,60.107,20.272,60.107,22.531Z" transform="translate(-28.576 -10.088)" fill="#ffd100"/>
        <path id="Tracciato_6153" data-name="Tracciato 6153" d="M88.214,3.972c0,2.176-1.891,4.57-3.94,3.94-2.08-.64-3.94-.63-3.94-3.94,0-2.176,1.891-4.255,3.94-3.94C86.424.363,88.214,1.923,88.214,3.972Z" transform="translate(-44.645 0)" fill="#ffd100"/>
        <path id="Tracciato_6154" data-name="Tracciato 6154" d="M25.318,191.6c-.889-1.127-2.847-1.594-3.651-.43-.816,1.181-1.783,1.937-.43,3.651a2.522,2.522,0,0,0,3.651.43A2.831,2.831,0,0,0,25.318,191.6Z" transform="translate(-11.428 -105.865)" fill="#ffd100"/>
      </g>
    </g>
    <g id="nat-papaya" transform="translate(804.448 809.677) rotate(26)">
      <g id="Raggruppa_40520" data-name="Raggruppa 40520" transform="translate(-65.465 -99.927)">
        <g id="Raggruppa_40517" data-name="Raggruppa 40517">
          <path id="Tracciato_5746" data-name="Tracciato 5746" d="M119.6,91.366c-4.868-7.573-11.883-16.621-11.238-25.762q.13-1.834.134-3.7l.02-11.378c.023-12.819-2.08-29.03-14.3-36.189S79.873.025,65.694,0h0C52.228-.023,44.709,5.89,36.04,15.413A51.908,51.908,0,0,0,22.7,50.356l-.02,11.377q0,2.552.227,5.04c.753,8.164-5.94,16.324-10.479,22.967A72.021,72.021,0,0,0,.005,131.351c.234,19.387,4.125,40.687,19.634,51.552,13.241,9.277,27.812,16.663,44.773,16.943,36.581.6,66.449-30.633,66.517-69.307A72.057,72.057,0,0,0,119.6,91.366Z" fill="#ffd100"/>
        </g>
        <g id="Raggruppa_40518" data-name="Raggruppa 40518" transform="translate(7.483 6.106)">
          <path id="Tracciato_5747" data-name="Tracciato 5747" d="M106.241,85.779c-4.323-7.11-10.554-15.6-9.98-24.187q.116-1.722.119-3.477L96.4,47.432C96.42,35.4,94.554,20.176,83.7,13.455S70.961.022,58.366,0h0C46.405-.021,39.725,5.532,32.023,14.474A50.341,50.341,0,0,0,20.167,47.283l-.019,10.682q0,2.4.2,4.732c.668,7.665-5.278,15.327-9.311,21.565A70.408,70.408,0,0,0,0,123.331c.206,18.2,3.661,38.2,17.436,48.4,11.761,8.709,24.7,15.642,39.77,15.9,32.494.563,59.029-28.767,59.092-65.078A70.487,70.487,0,0,0,106.241,85.779Z" fill="#ff5600"/>
        </g>
        <g id="Raggruppa_40519" data-name="Raggruppa 40519" transform="translate(44.309 103.175)">
          <path id="Tracciato_5748" data-name="Tracciato 5748" d="M9.669,4.873c0,2.67-2.32,5.608-4.835,4.835C2.283,8.923,0,8.934,0,4.873,0,2.2,2.321-.348,4.835.039,7.473.445,9.669,2.359,9.669,4.873Z" transform="translate(1.966 21.397)" fill="#653818"/>
          <path id="Tracciato_5749" data-name="Tracciato 5749" d="M9.208,4.641c0,2.543-2.21,5.341-4.6,4.6C2.174,8.5,0,8.509,0,4.641,0,2.1,2.21-.331,4.6.037,7.117.424,9.208,2.247,9.208,4.641Z" transform="translate(13.775 12.926)" fill="#653818"/>
          <path id="Tracciato_5750" data-name="Tracciato 5750" d="M10.489,5.287c0,2.9-2.518,6.084-5.244,5.244C2.476,9.679,0,9.692,0,5.287,0,2.39,2.517-.377,5.244.042,8.107.483,10.489,2.56,10.489,5.287Z" transform="translate(16.253 26.123)" fill="#653818"/>
          <path id="Tracciato_5751" data-name="Tracciato 5751" d="M10.054,5.068c0,2.776-2.413,5.831-5.027,5.027C2.374,9.278,0,9.29,0,5.068,0,2.291,2.413-.361,5.027.041,7.771.463,10.054,2.454,10.054,5.068Z" transform="translate(29.372 19.328)" fill="#653818"/>
          <path id="Tracciato_5752" data-name="Tracciato 5752" d="M9.233,4.654c0,2.549-2.216,5.355-4.617,4.617C2.18,8.521,0,8.532,0,4.654,0,2.1,2.216-.332,4.617.037,7.137.425,9.233,2.253,9.233,4.654Z" transform="translate(7.662 35.913)" fill="#653818"/>
          <path id="Tracciato_5753" data-name="Tracciato 5753" d="M10.07,5.076c0,2.781-2.417,5.841-5.035,5.035C2.377,9.293,0,9.306,0,5.076,0,2.3,2.417-.362,5.035.041,7.784.464,10.07,2.458,10.07,5.076Z" transform="translate(27.39 34.636)" fill="#653818"/>
          <path id="Tracciato_5754" data-name="Tracciato 5754" d="M7.687,3.875C7.687,6,5.842,8.333,3.844,7.718,1.815,7.094,0,7.1,0,3.875,0,1.752,1.845-.277,3.844.031,5.942.354,7.687,1.876,7.687,3.875Z" transform="translate(16.176 0)" fill="#653818"/>
          <path id="Tracciato_5755" data-name="Tracciato 5755" d="M9.361,4.718c0,2.585-2.247,5.43-4.68,4.681C2.21,8.639,0,8.65,0,4.718,0,2.133,2.247-.337,4.681.038,7.236.431,9.361,2.284,9.361,4.718Z" transform="translate(18.73 43.846)" fill="#653818"/>
          <path id="Tracciato_5756" data-name="Tracciato 5756" d="M8.777,4.424c0,2.424-2.106,5.091-4.388,4.389C2.072,8.1,0,8.11,0,4.424,0,2,2.106-.315,4.388.035,6.784.4,8.777,2.142,8.777,4.424Z" transform="translate(27.67 4.451)" fill="#653818"/>
          <path id="Tracciato_5757" data-name="Tracciato 5757" d="M9.78,4.93c0,2.7-2.347,5.672-4.89,4.89C2.309,9.025,0,9.037,0,4.93,0,2.229,2.347-.351,4.89.039,7.559.45,9.78,2.387,9.78,4.93Z" transform="translate(0 7.662)" fill="#653818"/>
          <path id="Tracciato_5758" data-name="Tracciato 5758" d="M9.075,4.574c0,2.506-2.178,5.264-4.537,4.537C2.142,8.375,0,8.386,0,4.574,0,2.068,2.178-.326,4.537.037,7.014.418,9.075,2.215,9.075,4.574Z" transform="translate(6.939 49.482)" fill="#653818"/>
          <path id="Tracciato_5759" data-name="Tracciato 5759" d="M7.9,3.981C7.9,6.161,6,8.561,3.949,7.929,1.864,7.288,0,7.3,0,3.981,0,1.8,1.9-.284,3.949.032,6.1.363,7.9,1.927,7.9,3.981Z" transform="translate(29.5 52.997)" fill="#653818"/>
          <path id="Tracciato_5760" data-name="Tracciato 5760" d="M7.9,3.981c0,2.181-1.9,4.58-3.949,3.949C1.864,7.288,0,7.3,0,3.981,0,1.8,1.9-.284,3.949.032,6.1.363,7.9,1.927,7.9,3.981Z" transform="translate(18.99 59.824)" fill="#653818"/>
        </g>
      </g>
    </g>
  </g>
</svg>
