<svg xmlns="http://www.w3.org/2000/svg" width="126.815" height="159.105"
  viewBox="0 0 126.815 159.105">
  <g transform="matrix(0.995, -0.105, 0.105, 0.995, 63.408, 83.323)">
    <g transform="translate(-55.503 -78.535)">
      <path
        d="M93.325,22.149a18.4,18.4,0,0,1-1.192,5.821c-.7,2.026-1.59,3.99-2.173,6.054-.62,2.2-.753,4.537-1.69,6.65-.92,2.077-2.509,3.767-3.509,5.806A20.684,20.684,0,0,0,83.024,52.3c-.664,4.106-.557,8.286-1.021,12.413-.269,2.405-.912,4.739-.569,7.171.346,2.457.858,4.864,1.071,7.345.144,1.71.224,3.425.272,5.14.2-.555.409-1.1.636-1.632a53.624,53.624,0,0,0,2.057-4.965c.452-1.45.309-3.17,1-4.522.768-1.508,2.469-1.544,3.948-1.731,1.771-.225,3.543-.472,5.318-.673a4.539,4.539,0,0,1,3.551.683,2.95,2.95,0,0,1,.918,1.6c.132.548.039,1.474.48,1.884.4.378,1.224.412,1.729.575a4.168,4.168,0,0,1,1.462.768,4.734,4.734,0,0,1,1.548,3.47c.082,3.026-2.261,5.2-4.252,7.155a53.077,53.077,0,0,1-7.6,6.5,24.224,24.224,0,0,1-4.5,2.379c-.792.311-1.664.453-1.84,1.416a10,10,0,0,0,.037,2.239,166,166,0,0,0,2.5,21.607c.161.886-.871,1.271-1.539,1.04a3.075,3.075,0,0,0-1.865-.043,1.205,1.205,0,0,1-.238.042,1.017,1.017,0,0,1-.453.522,1.2,1.2,0,0,1-1.338-.013,1.144,1.144,0,0,1-1.868-.431,16.325,16.325,0,0,1-4.058-3c-5.236-5.27-8.058-12.457-12.784-18.146-4.585-5.518-10.957-8.9-17.628-11.251-3.337-1.179-6.763-2.119-10.2-2.971a40.847,40.847,0,0,0-11.186-1.526c-4.066.141-7.945,1.451-11.918,2.2a38.347,38.347,0,0,1-11.605.226A3.311,3.311,0,0,1,.081,85.044,5.357,5.357,0,0,1,1.326,80.82c2.42-3.331,5.264-6.421,7.885-9.595,1.162-1.409,2.129-2.784,4.078-2.948a21.874,21.874,0,0,0,5.8-1.128c3.4-1.221,6.573-3.035,10.119-3.827a12.5,12.5,0,0,1,9.338,1.107,14.031,14.031,0,0,0,4.861,2.13c1.734.3,3.507.316,5.222.728a21.677,21.677,0,0,1,8.486,4.643c2.687,2.2,5.724,4.6,7.519,7.62,1.85,3.112,1.369,6.145.775,9.523a8.2,8.2,0,0,0,.059,4.452c.642,1.6,2.231,2.568,3.391,3.765a17.078,17.078,0,0,1,2.722,3.993c0-.211,0-.424.007-.644.039-1.758-1.134-2.957-1.8-4.5a11.666,11.666,0,0,1-.822-4.565c-.012-2.869.035-6.287,1.94-8.607.72-.877,2.035-1.82,3.055-2.888a8.424,8.424,0,0,1,1.322-4.433c-.487-.012-1.014.113-1.493.068a4.932,4.932,0,0,1-1.094-.233A6.178,6.178,0,0,1,70.421,74.1a15.014,15.014,0,0,1-3.152-5.174,9.6,9.6,0,0,0-4.142-4.913,24.481,24.481,0,0,1-4.978-3.083,8.275,8.275,0,0,1-2.465-5.239,47.954,47.954,0,0,1,.162-6.49A18.408,18.408,0,0,0,54.3,42.076a14.23,14.23,0,0,1-1.187-6.133,7.777,7.777,0,0,1,2.436-4.8,2.443,2.443,0,0,0,.77-1.295,4.838,4.838,0,0,0-.333-1.683,11.122,11.122,0,0,1-.326-2.819,11.786,11.786,0,0,1,1.63-5.856,21.513,21.513,0,0,1,3.872-4.243A8.46,8.46,0,0,0,62.984,13a9.819,9.819,0,0,0,.575-2.669c.4-2.083,2.075-3.09,3.9-3.838A19.816,19.816,0,0,0,73.58,2.828C75.217,1.322,76.5-.717,79.014.252a14.773,14.773,0,0,1,5.1,3.851,49.155,49.155,0,0,1,7.314,11.27A14.646,14.646,0,0,1,93.325,22.149Z"
        transform="translate(0 0)" fill="#00966e" />
      <path
        d="M895.669,1353.367a11.475,11.475,0,0,0-3.528-5.464,9.523,9.523,0,0,0-4.854-1.893,10.162,10.162,0,0,0-2.258-.858,19.8,19.8,0,0,0-5.168-.232c-.448.012-.9.018-1.351,0-.716-.3-1.383-.68-2.066-1.032-1.778-.918-3.981-1.586-6.093-.6a1.159,1.159,0,0,0-.745,1.123.791.791,0,0,0-.248.94c.467,1.148,1.082,2.523.706,3.828a16.332,16.332,0,0,0-2.729,2.123c-1.935,2.148-2.338,4.9-2.314,7.44.029,3.083.348,6.32,1.861,9.016a11.456,11.456,0,0,0,6.285,4.955,22.655,22.655,0,0,0,6.707,1.209,9.8,9.8,0,0,1,3.049,1.225c1.25.852,1.289,2.266,2.26,3.282a2.709,2.709,0,0,0,3.474.269c1.247-.98.523-2.5.785-3.723.613-2.852,3.1-5.117,5.1-7.361,2.076-2.333,3.789-4.891,3.751-7.831A10.283,10.283,0,0,0,895.669,1353.367Zm-20.564,7.97c-.068-.106-.132-.214-.194-.323h.076Q875.043,1361.177,875.1,1361.337Zm-2.251-16.454a1.025,1.025,0,0,1,.234.055.817.817,0,0,0,.053.154,1.215,1.215,0,0,0-.306-.079A.794.794,0,0,0,872.854,1344.883Zm-.664,6.709.144-.163c0,.033-.007.066-.011.1a.932.932,0,0,0-.043.141c-.012.061-.022.123-.034.184-.037-.015-.074-.029-.113-.041Z"
        transform="translate(-787.288 -1222.136)" fill="#e4002b" />
    </g>
  </g>
</svg>
