<svg xmlns="http://www.w3.org/2000/svg" width="126.296" height="151.073" viewBox="0 0 126.296 151.073">
  <g id="pallini_gialli" data-name="pallini gialli" transform="translate(-80.621 103.635) rotate(180)">
    <g id="Raggruppa_40525" data-name="Raggruppa 40525" transform="translate(-186.717 -113.999)">
      <path id="Tracciato_5781" data-name="Tracciato 5781" d="M106.1,167.888c0-6.8-5.914-14.291-12.32-12.32-6.5,2-12.32,1.972-12.32,12.32,0,6.8,5.913,13.306,12.32,12.32C100.5,179.174,106.1,174.295,106.1,167.888Z" transform="translate(0 0)" fill="#ffd100"/>
      <path id="Tracciato_5782" data-name="Tracciato 5782" d="M66.7,155.359c0-5.281-4.591-11.093-9.564-9.563-5.048,1.553-9.563,1.53-9.563,9.563,0,5.282,4.59,10.329,9.563,9.564C62.36,164.12,66.7,160.332,66.7,155.359Z" transform="translate(0 0)" fill="#ffd100"/>
      <path id="Tracciato_5783" data-name="Tracciato 5783" d="M93.277,136.038c0-6.8-5.913-14.291-12.32-12.32-6.5,2-12.32,1.971-12.32,12.32,0,6.8,5.914,13.306,12.32,12.32C87.682,147.323,93.277,142.444,93.277,136.038Z" transform="translate(0 0)" fill="#ffd100"/>
      <path id="Tracciato_5784" data-name="Tracciato 5784" d="M60.641,126.337c0-6.8-5.914-14.291-12.32-12.32-6.5,2-12.32,1.972-12.32,12.32,0,6.805,5.914,13.306,12.32,12.32C55.046,137.623,60.641,132.744,60.641,126.337Z" transform="translate(0 0)" fill="#ffd100"/>
      <path id="Tracciato_5785" data-name="Tracciato 5785" d="M30.408,37.588c2.028,2.57,2.026,7.161-.981,8.326-3.053,1.183-5.241,2.928-8.326-.981-2.029-2.57-1.733-6.789.981-8.327C24.931,34.993,28.5,35.168,30.408,37.588Z" transform="translate(-37 103.203)" fill="#ffd100"/>
      <path id="Tracciato_5786" data-name="Tracciato 5786" d="M30.092,60.2c3.581,4.539,3.578,12.646-1.733,14.7-5.391,2.089-9.256,5.17-14.7-1.733-3.582-4.538-3.06-11.988,1.733-14.7C20.419,55.62,26.719,55.93,30.092,60.2Z" transform="translate(21.05 9.951)" fill="#ffd100"/>
      <path id="Tracciato_5787" data-name="Tracciato 5787" d="M26.837,100.261c3.565,4.518,3.544,12.6-1.762,14.666-5.387,2.1-9.251,5.176-14.674-1.7-3.566-4.518-3.028-11.948,1.762-14.666C17.191,95.712,23.48,96.007,26.837,100.261Z" transform="translate(0 0)" fill="#ffd100"/>
      <path id="Tracciato_5788" data-name="Tracciato 5788" d="M30.307,132.2c3.582,4.539,3.578,12.646-1.733,14.7-5.391,2.089-9.255,5.17-14.7-1.733-3.582-4.538-3.059-11.988,1.733-14.7C20.635,127.613,26.935,127.923,30.307,132.2Z" transform="translate(0 0)" fill="#ffd100"/>
      <path id="Tracciato_5789" data-name="Tracciato 5789" d="M94.933,200.489c-3.581-4.538-11.467-6.42-14.7-1.732-3.285,4.758-7.18,7.8-1.733,14.7,3.582,4.539,10.949,5.762,14.7,1.733C97.142,210.963,98.306,204.763,94.933,200.489Z" transform="translate(0 0)" fill="#ffd100"/>
      <path id="Tracciato_5790" data-name="Tracciato 5790" d="M60.962,199.59c-2.511-3.183-8.041-4.5-10.31-1.215-2.3,3.336-5.035,5.469-1.215,10.31,2.511,3.183,7.677,4.041,10.31,1.215C62.511,206.934,63.327,202.586,60.962,199.59Z" transform="translate(0 0)" fill="#ffd100"/>
      <path id="Tracciato_5791" data-name="Tracciato 5791" d="M44.525,169.979c-3.56-4.51-11.4-6.38-14.612-1.722-3.264,4.729-7.136,7.752-1.722,14.612,3.559,4.511,10.881,5.727,14.612,1.722C46.72,180.387,47.876,174.226,44.525,169.979Z" transform="translate(0 0)" fill="#ffd100"/>
      <path id="Tracciato_5792" data-name="Tracciato 5792" d="M13.941,167.393c-2.607-3.3-8.347-4.674-10.7-1.262-2.391,3.464-5.227,5.679-1.261,10.7,2.607,3.3,7.97,4.195,10.7,1.261C15.549,175.017,16.4,170.5,13.941,167.393Z" transform="translate(0 0)" fill="#ffd100"/>
      <path id="Tracciato_5793" data-name="Tracciato 5793" d="M72.267,175.409c-2.625-3.327-8.406-4.706-10.778-1.27-2.407,3.488-5.263,5.718-1.27,10.778,2.626,3.327,8.026,4.224,10.778,1.27C73.886,183.086,74.739,178.542,72.267,175.409Z" transform="translate(0 0)" fill="#ffd100"/>
      <path id="Tracciato_5794" data-name="Tracciato 5794" d="M77.386,98.224c3.025,3.833,3.007,10.69-1.494,12.44-4.569,1.777-7.847,4.391-12.447-1.438-3.024-3.833-2.568-10.135,1.5-12.44C69.205,94.366,74.539,94.616,77.386,98.224Z" transform="translate(0 0)" fill="#ffd100"/>
      <path id="Tracciato_5795" data-name="Tracciato 5795" d="M92.674,88.893c1.512,1.916,1.5,5.345-.747,6.22C89.642,96,88,97.308,85.7,94.394c-1.512-1.916-1.284-5.067.747-6.22C88.583,86.964,91.25,87.089,92.674,88.893Z" transform="translate(-104.923 16.626)" fill="#ffd100"/>
      <path id="Tracciato_5798" data-name="Tracciato 5798" d="M31.267,192.984c-2-2.537-6.409-3.588-8.218-.968-1.836,2.659-4.013,4.359-.968,8.218,2,2.536,6.119,3.22,8.218.968C32.5,198.838,33.152,195.373,31.267,192.984Z" transform="translate(0 0)" fill="#ffd100"/>
    </g>
  </g>
</svg>
