<svg xmlns="http://www.w3.org/2000/svg" xmlns:xlink="http://www.w3.org/1999/xlink" width="40" height="40" viewBox="0 0 40 40">
  <defs>
    <clipPath id="clip-path">
      <rect id=":icon" width="40" height="40" transform="translate(33 18)" fill="#f0f1fb"/>
    </clipPath>
  </defs>
  <g transform="translate(-33 -18)" clip-path="url(#clip-path)">
    <g transform="translate(53 38)">
      <path d="M13.593,3.387a.907.907,0,0,1-.352.635A13.269,13.269,0,0,0,11.568,5.9a11.192,11.192,0,0,0-1.988,5.256c-.031.266-.106.319-.4.663-.1.112-.05.2-.021.3q.132.457.264.914l.076.353c.071.242.14.484.211.726.645,2.235,1.368,4.444,2.212,6.612a1.037,1.037,0,0,0,.257.46c.08-.452.14-.869.228-1.28a14.246,14.246,0,0,1,2.9-6.08.938.938,0,0,1,1.32-.266.926.926,0,0,1,.161,1.357,16.877,16.877,0,0,0-2.449,4.759c-.382,1.264-.523,2.576-.8,3.86a2.152,2.152,0,0,0,.188,1.431l.029.062c.022.048.044.1.067.143q.394.833.808,1.654c.035.07.055.152.146.188.1-.075.047-.183.045-.274a14.639,14.639,0,0,1,1.076-5.95,1.953,1.953,0,0,1,.147-.306.915.915,0,0,1,1.66.763,26.021,26.021,0,0,0-.826,2.98,15.087,15.087,0,0,0,0,5.2,18.392,18.392,0,0,1,.818-2.729,14.028,14.028,0,0,1,1.5-2.811,12.418,12.418,0,0,1,1.3-1.617.924.924,0,0,1,1.024-.275.892.892,0,0,1,.581.776.973.973,0,0,1-.253.751,20.655,20.655,0,0,0-1.781,2.568,15.29,15.29,0,0,0-1.506,3.925c-.18.762-.356,1.524-.553,2.282a.967.967,0,0,0,.116.8c.529.887,1.027,1.791,1.554,2.679.142.242.128.378-.129.506-.223.111-.432.249-.646.378a.142.142,0,0,1-.2-.064c-.359-.78-.842-1.491-1.251-2.241a2.6,2.6,0,0,0-1.019-1.145c-1.006-.566-1.9-1.312-2.892-1.914a14.522,14.522,0,0,0-5.038-1.877c-.3-.054-.6-.105-.9-.172A.925.925,0,0,1,6.8,28.187a.908.908,0,0,1,1.044-.758A14.292,14.292,0,0,1,14.7,29.92a.162.162,0,0,0,.216.024l-.658-1.21c-.661-1.217-1.273-2.458-1.858-3.713a.635.635,0,0,0-.208-.2c-1.116-.65-2.194-1.366-3.341-1.967A14.035,14.035,0,0,0,4,21.384c-.36-.043-.722-.082-1.077-.152a.9.9,0,0,1-.79-1.016.917.917,0,0,1,.987-.792,13.194,13.194,0,0,1,2.927.393A14.09,14.09,0,0,1,9.7,21.26a.984.984,0,0,0,.19.071,14.48,14.48,0,0,0-.581-1.4,14.884,14.884,0,0,0-3.847-4.494,2.953,2.953,0,0,1-.369-.352.88.88,0,0,1-.01-1.184.861.861,0,0,1,1.137-.188A11.609,11.609,0,0,1,8.262,15.4c.26.263.508.537.8.848-.31-1.065-.612-2.1-.911-3.132l-.078-.259c-.068-.235-.072-.344-.138-.58-.041-.144-.083-.146-.273-.206a.955.955,0,0,1-.379-.175A44.808,44.808,0,0,0,3.112,8.565c-.786-.539-1.59-1.049-2.4-1.548-.1-.059-.192-.12-.283-.188A.912.912,0,0,1,.128,5.6a.95.95,0,0,1,1.255-.334A19.539,19.539,0,0,1,7.261,9.718c.088.1.181.193.315.335-.159-.574-.311-1.08-.438-1.593A19.243,19.243,0,0,1,6.8.93.956.956,0,0,1,7.815,0,.925.925,0,0,1,8.636,1.1a44.78,44.78,0,0,0-.064,5.339,7.47,7.47,0,0,0,.142,1.3A10.567,10.567,0,0,1,9.745,5.5a10.924,10.924,0,0,1,2.38-2.732.867.867,0,0,1,1-.188A.823.823,0,0,1,13.593,3.387Z" transform="translate(-11.051 -18.338)" fill="#00966e"/>
    </g>
  </g>
</svg>
