<svg xmlns="http://www.w3.org/2000/svg" width="30.119" height="38" viewBox="0 0 30.119 38">
  <path
    d="M15.347,38q-5.334,0-10.667,0A4.051,4.051,0,0,1,.638,34.7,8.458,8.458,0,0,1,.61,32.6C.661,31.54-.057,30.241,0,29.183c.124-2.167,1.041-4.094,1.16-6.261.081-1.49.152-2.981.236-4.471.118-2.118-.346-3.035-.214-5.152.046-.739,1.228-2.457,2.02-2.461,1.6-.008,3.21,0,4.815,0,.492,0,.493,0,.494-.487,0-1.161,0-2.321,0-3.482a6.816,6.816,0,0,1,13.6-.671c.109,1.394.034,2.789.045,4.183,0,.351.1.469.461.465,1.568-.017,3.136-.009,4.7-.007a1.421,1.421,0,0,1,1.6,1.521c.146,2.66-.263,5.24-.114,7.9.124,2.229.808,4.537.932,6.766s.268,4.457.365,6.687A4.035,4.035,0,0,1,25.977,38Q20.662,38,15.347,38Zm-.066-27.165c1.21,0,2.42-.012,3.63.008.353.006.442-.122.438-.451-.015-1.173.13-1.449.132-2.622a15.582,15.582,0,0,0-.213-2.363c-.526-1.8-1.034-3.151-4.208-2.986-2.175-.012-3.748,2.145-3.9,4.02-.106,1.332.176,2.657.133,3.988-.011.338.117.416.43.412C12.91,10.825,14.1,10.834,15.281,10.834Z"
    transform="translate(0 0)"
    stroke="none" />
</svg>
