<svg xmlns="http://www.w3.org/2000/svg" xmlns:xlink="http://www.w3.org/1999/xlink" width="40" height="40" viewBox="0 0 40 40">
  <defs>
    <clipPath id="clip-path">
      <rect id=":icon" width="40" height="40" transform="translate(33 18)" fill="#f0f1fb"/>
    </clipPath>
  </defs>
  <g transform="translate(-33 -18)" clip-path="url(#clip-path)">
    <g transform="translate(53 38)">
      <g transform="translate(-18.271 -11.307)">
        <g transform="translate(0 4.192)">
          <path d="M.092,44.222c.04-.557.341-.531.572-.567H18.077v.017q4.691,0,9.38,0c2.708,0,4.847.238,7.553.228a4.013,4.013,0,0,1,1.07.2c1.055.4-.021,2.319-.022,3.447a1.964,1.964,0,0,1-.026.73c-.11.252-.445.181-.682.256a.587.587,0,0,0-.119.053,3.949,3.949,0,0,0-2.11,2.636,3.483,3.483,0,0,0,.378,2.726,3.387,3.387,0,0,0,2.225,1.781.425.425,0,0,1,.34.494c-.012,1.622,0,3.245-.008,4.867,0,.575-.327.98-.906.912-3.657-.432-5.656.3-9.9,0-.268-.019-.392-.017-.351-.381a3.69,3.69,0,0,0-.99-3.04,2.648,2.648,0,0,0-2.017-1.092c-1.35.145-2.023,0-2.9.61a3.821,3.821,0,0,0-1.227,1.4,3.367,3.367,0,0,0-.433,2.119c.056.364-.061.38-.341.38-5.269,0-9.725-.813-15.806,0-.8.107-1.208-.3-1.09-1.1C.736,56.56-.3,49.655.092,44.222ZM29.516,58.961a1.549,1.549,0,0,0,1.493-1.534A1.5,1.5,0,0,0,29.5,55.88c-.781-.128-1.536.856-1.518,1.554A1.627,1.627,0,0,0,29.516,58.961Zm-3.033-6.129a3.216,3.216,0,0,0,3.24-2.823,3.184,3.184,0,1,0-3.24,2.823Zm-7.628-1.506c.615-.155,1.621-.6,1.477-1.565a1.446,1.446,0,0,0-1.493-1.49A1.586,1.586,0,0,0,17.3,49.81C17.3,50.566,18.113,51.514,18.855,51.326ZM8.2,55.37a3.725,3.725,0,0,0,3.915,3.576,3.9,3.9,0,0,0,3.683-4.106,3.608,3.608,0,0,0-3.929-3.507A3.925,3.925,0,0,0,8.2,55.37Zm-.749-5.6A2.353,2.353,0,0,0,9.732,47.5c.16-1.208-.778-2.136-2.2-2.132a2.249,2.249,0,0,0-2.381,2.116A2.285,2.285,0,0,0,7.446,49.767Z" transform="translate(0 -43.655)" fill="#ffd100"/>
        </g>
        <path d="M1.182,4.686c.305,0,.616.04.916.013.472-.044,4.431.166,9.126.167.708,0,1.588.009,2.092.048,1.059.081,17.155.335,20.839.057.519-.039,2.278-.274,2.773-.336a14.125,14.125,0,0,0-1.953-.509c-1.581-.4-3.194-.754-4.8-1.129s-3.174-.752-4.772-1.114c-1.042-.236-2.066-.492-3.111-.722C20.811.832,19.377.424,17.846.166a11.073,11.073,0,0,0-3.53-.044,30.551,30.551,0,0,0-3.372.534A41.04,41.04,0,0,0,5.884,1.933a16.586,16.586,0,0,0-4.01,1.73,2.494,2.494,0,0,0-.913.855C.906,4.651.941,4.686,1.182,4.686Z" transform="translate(-0.848 0)" fill="#ff5600"/>
      </g>
    </g>
  </g>
</svg>
