<svg xmlns="http://www.w3.org/2000/svg" xmlns:xlink="http://www.w3.org/1999/xlink" width="40" height="40" viewBox="0 0 40 40">
  <defs>
    <clipPath id="clip-path">
      <rect id=":icon" width="40" height="40" transform="translate(33 18)" fill="#f0f1fb"/>
    </clipPath>
  </defs>
  <g transform="translate(-33 -18)" clip-path="url(#clip-path)">
    <g transform="translate(53 38)">
      <g transform="translate(-17.744 -15.034)">
        <path d="M244.276,1.358a2.933,2.933,0,0,1-2.05,2.977c-.155.058-.322.111-.5.158a.281.281,0,0,1-.379-.223,2.762,2.762,0,0,1,.3-1.484,3.76,3.76,0,0,1,2.226-1.661A.282.282,0,0,1,244.276,1.358Z" transform="translate(-221.175 -1.011)" fill="#653818"/>
        <path d="M23.287,45.551a15.119,15.119,0,0,1-10.275,4.9c-3.749.321-8.473-.257-11.13-3.222-2.2-2.458-2.83-6.467.095-8.166a7.152,7.152,0,0,0,1.175-.827c.086-.077.153-.135.2-.183A9.039,9.039,0,0,0,5.11,35.145,18.829,18.829,0,0,0,6.277,31.63,11.769,11.769,0,0,1,8.92,26.393c2.856-3.172,7.431-5.016,11.351-3.548a8.414,8.414,0,0,1,1.552.8c.683.446,1.029,1.09,1.323,1.269a6.658,6.658,0,0,1,2.532,2.863c1.023,2.2.22,3.961.538,6.387A14.329,14.329,0,0,1,23.287,45.551Z" transform="translate(0 -20.467)" fill="#ffd100"/>
        <path d="M273.888,13.841c-6.026-1.054-10.777-3.576-11.852-10.327a18.263,18.263,0,0,1-.209-2.129A1.33,1.33,0,0,1,263.285.006a14.006,14.006,0,0,1,6.69,2.217c2.827,1.926,4.777,5.168,5.449,10.137A1.325,1.325,0,0,1,273.888,13.841Z" transform="translate(-239.948 0)" fill="#00966e"/>
      </g>
    </g>
  </g>
</svg>
