<svg xmlns="http://www.w3.org/2000/svg" width="17.341" height="14.861" viewBox="0 0 17.341 14.861">
  <path
    d="M10.923,7.627a3.931,3.931,0,0,1,3.944,3.913,3.764,3.764,0,0,1-.283,1.432l2.3,2.283a9.252,9.252,0,0,0,2.705-3.715A9.339,9.339,0,0,0,7.776,6.218l1.7,1.691A3.9,3.9,0,0,1,10.923,7.627ZM3.039,5.495l1.8,1.784.364.36a9.207,9.207,0,0,0-2.953,3.9,9.353,9.353,0,0,0,12.125,5.209l.333.329,2.31,2.283,1-.995L4.038,4.5ZM7.4,9.817,8.62,11.029a2.217,2.217,0,0,0-.062.507,2.353,2.353,0,0,0,2.365,2.345,2.224,2.224,0,0,0,.511-.062l1.223,1.211a3.923,3.923,0,0,1-5.677-3.5A3.866,3.866,0,0,1,7.4,9.817Zm3.4-.608,2.485,2.465.015-.124A2.353,2.353,0,0,0,10.93,9.206Z"
    stroke="none"
    transform="translate(-2.25 -4.5)" />
</svg>
