<svg xmlns="http://www.w3.org/2000/svg" xmlns:xlink="http://www.w3.org/1999/xlink" width="40" height="40" viewBox="0 0 40 40">
  <defs>
    <clipPath id="clip-path">
      <rect id=":icon" width="40" height="40" transform="translate(33 18)" fill="#f0f1fb"/>
    </clipPath>
  </defs>
  <g transform="translate(-33 -18)" clip-path="url(#clip-path)">
    <g transform="translate(53 38)">
      <g transform="translate(-14.15 -18.293)">
        <g>
          <path d="M15.4,259.558c-.957.393-2.073-.237-2.872-.742a20.068,20.068,0,0,1-4.188-4.142.7.7,0,0,1-.14-.242q-.344-.411-.671-.834-.764-.988-1.447-2.036-.306-.331-.592-.682a23.963,23.963,0,0,1-3.141-5.262c-.431-.948-.825-1.911-1.206-2.88a19.634,19.634,0,0,1-.932-2.814,6.968,6.968,0,0,1-.1-2.894,9.794,9.794,0,0,1,1.156-2.842A7.661,7.661,0,0,1,4.8,230.541l.111-.061a.657.657,0,0,1,.343-.084c.1-.027.208-.05.315-.068l.026-.015a5.506,5.506,0,0,1,4.146-.51,11.615,11.615,0,0,1,1.292.505,2.129,2.129,0,0,0,1.306.089c.965-.2,1.911-.478,2.881-.661a23.752,23.752,0,0,1,3.017-.387,17.881,17.881,0,0,1,3.021.051,9.821,9.821,0,0,1,2.872.666,4.932,4.932,0,0,1,2.3,2.11,15.053,15.053,0,0,1,1.3,2.818,9.9,9.9,0,0,1,.573,3.165,10.371,10.371,0,0,1-.464,2.95,19.935,19.935,0,0,1-1.18,3.013,24.848,24.848,0,0,1-.966,2.847c-1.047,2.585-2.261,5.239-4.5,7.013-.491.389-1.015.753-1.472,1.187a25.947,25.947,0,0,1-1.887,2.369,12.55,12.55,0,0,1-1.138,1.11A5.256,5.256,0,0,1,15.4,259.558Z" transform="translate(0 -223.096)" fill="#e4002b"/>
          <path d="M275,7.6a4.518,4.518,0,0,0-.786-2.438,3.068,3.068,0,0,0-1.781-1.033A4.419,4.419,0,0,0,268.9,5.1L271.214.9A.447.447,0,0,0,271.1.341a.345.345,0,0,0-.081-.114.869.869,0,0,0-1.4.389,9.457,9.457,0,0,0-.316,1l0,.007a16.9,16.9,0,0,0-1.9,3.4,2.579,2.579,0,0,0-1.668-.743c-.538-.041-1.094.036-1.629-.056q-.689-.856-1.439-1.662a.378.378,0,0,0-.585.006.343.343,0,0,0-.146.417,7.975,7.975,0,0,0,.93,2.05q-.353-.2-.691-.424c-.377-.253-.894-.856-1.4-.716-.606.169-.439.838-.186,1.226a5.372,5.372,0,0,0,2.967,1.7q.428.141.864.257a1.6,1.6,0,0,0-.122.163c-.124.189-.2.479-.41.584-.436.216-.161.843.286.771a9.78,9.78,0,0,0,2.965-.98.409.409,0,0,0,.07-.009,3.814,3.814,0,0,0,.486,1.21.418.418,0,0,0,.781-.178l.025-1.135.017.01a1.81,1.81,0,0,0,1.1.187,4.911,4.911,0,0,0,.891.375,1.406,1.406,0,0,0,1.541-.519,1.008,1.008,0,0,0,.163-.726.571.571,0,0,0-.029-.1,1.707,1.707,0,0,1,1.007.091,1.857,1.857,0,0,1,1.024,1.054C274.412,8.352,275.041,8.019,275,7.6Z" transform="translate(-253.309 0)" fill="#00966e"/>
        </g>
      </g>
    </g>
  </g>
</svg>
