<svg xmlns="http://www.w3.org/2000/svg" width="15.002" height="15" viewBox="0 0 15.002 15">
  <path
    d="M7.5,5.892a3.846,3.846,0,1,0,3.845,3.846A3.84,3.84,0,0,0,7.5,5.892Zm0,6.346a2.5,2.5,0,1,1,2.5-2.5A2.5,2.5,0,0,1,7.5,12.238Zm4.9-6.5a.9.9,0,1,1-.9-.9A.895.895,0,0,1,12.4,5.735Zm2.547.91A4.439,4.439,0,0,0,13.732,3.5,4.468,4.468,0,0,0,10.59,2.29c-1.238-.07-4.95-.07-6.188,0A4.461,4.461,0,0,0,1.259,3.5,4.454,4.454,0,0,0,.047,6.642c-.07,1.238-.07,4.95,0,6.189a4.439,4.439,0,0,0,1.212,3.143A4.473,4.473,0,0,0,4.4,17.185c1.238.07,4.95.07,6.188,0a4.438,4.438,0,0,0,3.143-1.212,4.469,4.469,0,0,0,1.212-3.143c.07-1.238.07-4.947,0-6.185Zm-1.6,7.514a2.531,2.531,0,0,1-1.426,1.426,16.528,16.528,0,0,1-4.421.3,16.657,16.657,0,0,1-4.421-.3,2.531,2.531,0,0,1-1.426-1.426,16.533,16.533,0,0,1-.3-4.422,16.662,16.662,0,0,1,.3-4.422A2.531,2.531,0,0,1,3.076,3.89a16.528,16.528,0,0,1,4.421-.3,16.657,16.657,0,0,1,4.421.3,2.531,2.531,0,0,1,1.426,1.426,16.533,16.533,0,0,1,.3,4.422A16.523,16.523,0,0,1,13.344,14.159Z"
    transform="translate(0.005 -2.238)" />
</svg>
