<svg xmlns="http://www.w3.org/2000/svg" width="21.915" height="22.138" viewBox="0 0 21.915 22.138">
  <g transform="translate(10.933 11.044)">
    <path
      d="M21.522,20.421a7.376,7.376,0,0,1-1.7-1.792A46.817,46.817,0,0,0,15.458,14.3c3.015-3.276,2-8.787-1.4-12.14C10.371-1.484,4.888-.181,1.921,3.557s-2.5,9.742,1.4,12.14a8.641,8.641,0,0,0,10.829-.068,10.913,10.913,0,0,1,1.91,1.934c.42.56,4.114,4.147,4.114,4.147a.934.934,0,1,0,1.351-1.289ZM8.668,15.7a6.827,6.827,0,1,1,4.826-2A6.827,6.827,0,0,1,8.668,15.7Z"
      transform="translate(-10.889 -11)" fill="#00966e" stroke="#00966e" stroke-width="0.071" />
  </g>
</svg>
