<svg xmlns="http://www.w3.org/2000/svg" viewBox="0 0 21.88 22.09" width="20" height="20.1986"><path d="m21.63,20.47s-.01-.02-.02-.03l-.03-.02c-.66-.49-1.22-1.09-1.69-1.78-1.34-1.52-2.8-2.97-4.34-4.31,1.41-1.55,2.01-3.69,1.69-6.04-.3-2.24-1.44-4.47-3.11-6.12C12.57.63,10.62-.12,8.48.01,6.03.16,3.59,1.49,1.94,3.57.37,5.55-.31,8.25.14,10.8c.38,2.16,1.52,3.93,3.2,4.96,1.53,1.21,3.45,1.88,5.4,1.88h.05c1.96-.01,3.88-.7,5.4-1.93.71.56,1.34,1.2,1.89,1.91.41.55,3.96,4,4.11,4.15.18.19.41.3.67.32h.05c.24,0,.47-.09.65-.25.19-.18.31-.41.32-.67s-.08-.51-.25-.7Zm-12.92-4.77c-1.81,0-3.52-.71-4.8-1.99s-1.99-2.99-1.99-4.8.7-3.52,1.99-4.8c1.28-1.29,2.98-1.99,4.8-1.99s3.52.7,4.8,1.98c1.28,1.29,1.99,2.99,1.99,4.81s-.7,3.51-1.99,4.8-2.98,1.99-4.8,1.99Z" /></svg>