<svg xmlns="http://www.w3.org/2000/svg" xmlns:xlink="http://www.w3.org/1999/xlink" width="40" height="40" viewBox="0 0 40 40">
  <defs>
    <clipPath id="clip-path">
      <rect id=":icon" width="40" height="40" transform="translate(33 18)" fill="#f0f1fb"/>
    </clipPath>
  </defs>
  <g transform="translate(-33 -18)" clip-path="url(#clip-path)">
    <g transform="translate(53 38)">
      <path d="M36.21,13.076c-1.821-2.084-3.154-4.31-4.843-6.339-1.407-2.042-3.131-4.109-6-3.431C23.982-.294,19.878.74,16.942,0a9.528,9.528,0,0,0-6.216,3.15C8.993,3.513,8.6,5.277,7.216,6.126,6.07,8.145,5.058,7.7,3.06,7.944c-3.4,1.544-3.6,6.149-2.37,9.141,2.267,2.379-3.019,6.836,2.073,9.476C6.893,28.2,5.3,24.975,7.4,23.75c3.345.737,8.752.559,8.907,5.556.323.616,1.163.323,1.557.878.412.439.684,1.281,1.363,1.345,5.48-1.722,6.87.025,5.28-4.988.095-1.161.755-2.186.186-3.351-.157-1.505,1.351-2.7,2.652-3.074a11.8,11.8,0,0,0,3.293,1.472c2.763.463,6.02-.855,5.312-4.107C37.275,16.634,36.124,14.41,36.21,13.076ZM23.274,20.413a4.593,4.593,0,0,1,1.407-3.276c.734.584,1.284-.264,1.922-.514C26.318,18.59,23.277,18.243,23.274,20.413ZM9.4,20.757c1.036-.971,3.179-.1,4.673-.2C12.829,21.569,8.843,23.978,9.4,20.757Zm2.846-6.009c.3-.616,1.039-.392,1.44-.966.228-.291.364-.992.813-1C19.112,14.243,16,19.428,12.244,14.748ZM28.837,19.89c.228.828-.646.321-.949-.028C28.271,19.806,28.959,19.209,28.837,19.89Z" transform="translate(-18.296 -15.765)" fill="#00966e"/>
    </g>
  </g>
</svg>
