<svg xmlns="http://www.w3.org/2000/svg" width="17.33" height="13" viewBox="0 0 17.33 13"><path d="M17.217,7.371a2.631,2.631,0,0,0-2.505-2.749C12.837,4.534,10.924,4.5,8.971,4.5H8.361c-1.95,0-3.866.034-5.741.122a2.637,2.637,0,0,0-2.5,2.756C.034,8.583,0,9.788,0,10.993s.034,2.41.115,3.619a2.64,2.64,0,0,0,2.5,2.759c1.97.091,3.991.132,6.046.129s4.072-.034,6.046-.129a2.641,2.641,0,0,0,2.505-2.759c.081-1.209.118-2.414.115-3.622S17.3,8.579,17.217,7.371ZM7.007,14.314V7.662l4.909,3.324Z" transform="translate(0 -4.5)" /></svg>